<svg width="372" height="160" viewBox="0 0 372 160" fill="none" xmlns="http://www.w3.org/2000/svg">
<path d="M354.07 149.473C339.167 153.879 319.478 159.064 315.198 158.802C310.918 158.54 10.3287 147.138 6.4381 145.329M6.4381 145.329C2.54752 143.519 -1.5968 34.1594 3.0719 27.943C7.73213 21.7265 46.6041 -7.03841 48.4225 3.06864C50.2409 13.1757 47.1285 124.861 39.8717 129.783C32.6149 134.706 10.0749 141.7 11.8849 140.406C13.6949 139.112 35.3214 127.956 38.1886 127.965C41.0558 127.973 88.4617 138.588 89.7557 137.167C91.0497 135.737 96.4966 104.258 101.284 103.217C106.079 102.177 354.543 123.389 354.543 125.284C354.543 127.187 349.883 138.841 349.105 139.104C348.327 139.366 344.529 134.266 342.973 134.097C341.417 133.927 100.125 120.057 99.22 119.414C98.315 118.763 99.8712 106.33 101.554 105.941C103.237 105.552 350.636 127.136 350.695 127.423C350.754 127.711 348.522 135.704 348.471 136.913C348.412 138.122 354.848 142.74 353.977 143.079C353.114 143.426 101.816 130.942 98.315 129.648C94.8134 128.354 98.9662 120.014 99.0508 121.486C99.1354 122.958 93.5194 135.475 94.9065 136.778C96.2936 138.08 320.611 149.904 326.142 149.219C331.674 148.526 347.65 144.297 344.8 144.119C341.95 143.95 332.274 147.485 341.087 148.441C349.9 149.388 358.02 147.147 359.83 143.781C361.64 140.415 370.799 113.028 369.421 111.819C368.042 110.609 52.0679 85.5574 52.0679 82.6225C52.0679 79.6877 53.6241 77.6155 55.1803 77.7847C56.7366 77.9538 370.546 109.053 371.188 108.791C371.84 108.529 370.41 55.4138 366.909 53.9845C363.407 52.5551 53.7086 -0.475164 52.7529 1.85918C51.8056 4.19353 50.3763 78.4782 49.2091 95.8336C48.0419 113.197 48.1688 129.259 37.0299 136C25.891 142.74 11.7496 148.179 6.4381 145.329Z" stroke="#641A89" stroke-width="1.27914" stroke-miterlimit="10"/>
</svg>
