<svg width="470" height="54" viewBox="0 0 470 54" fill="none" xmlns="http://www.w3.org/2000/svg">
<rect x="0.5" y="0.5" width="469" height="53" rx="26.5" fill="white" stroke="#E3E3E3"/>
<path opacity="0.5" d="M155.136 21.608H162.464V22.344L157.056 33H155.984L161.36 22.472H155.136V21.608ZM168.058 21.48C169.402 21.48 170.436 21.9547 171.162 22.904C171.898 23.8533 172.266 25.2133 172.266 26.984C172.266 28.9253 171.887 30.4347 171.13 31.512C170.383 32.5893 169.332 33.128 167.978 33.128C167.338 33.128 166.708 33.0053 166.09 32.76C165.482 32.504 164.938 32.1413 164.458 31.672L164.874 30.888C165.428 31.368 165.951 31.72 166.442 31.944C166.943 32.1573 167.455 32.264 167.978 32.264C169.012 32.264 169.818 31.8 170.394 30.872C170.98 29.944 171.274 28.648 171.274 26.984V26.536C171.039 27.208 170.628 27.736 170.042 28.12C169.455 28.504 168.783 28.696 168.026 28.696C167.322 28.696 166.698 28.5467 166.154 28.248C165.61 27.9387 165.188 27.512 164.89 26.968C164.591 26.424 164.442 25.8 164.442 25.096C164.442 24.4027 164.596 23.784 164.906 23.24C165.215 22.6853 165.642 22.2533 166.186 21.944C166.74 21.6347 167.364 21.48 168.058 21.48ZM168.106 27.816C168.639 27.816 169.114 27.704 169.53 27.48C169.956 27.2453 170.287 26.92 170.522 26.504C170.756 26.088 170.874 25.6187 170.874 25.096C170.874 24.2747 170.612 23.6133 170.09 23.112C169.578 22.6 168.911 22.344 168.09 22.344C167.3 22.344 166.66 22.5947 166.17 23.096C165.69 23.5973 165.45 24.264 165.45 25.096C165.45 25.9067 165.695 26.5627 166.186 27.064C166.676 27.5653 167.316 27.816 168.106 27.816ZM182.18 29.56V30.408H180.42V33H179.428V30.408H174.036V29.656L179.604 21.608H180.42V29.56H182.18ZM175.14 29.56H179.428V23.368L175.14 29.56ZM191.773 29.56V30.408H190.013V33H189.021V30.408H183.629V29.656L189.197 21.608H190.013V29.56H191.773ZM184.733 29.56H189.021V23.368L184.733 29.56ZM198.647 27.144C199.319 27.336 199.831 27.672 200.183 28.152C200.535 28.6213 200.711 29.2133 200.711 29.928C200.711 30.9093 200.386 31.688 199.735 32.264C199.095 32.8293 198.22 33.112 197.111 33.112C196.386 33.112 195.692 32.984 195.031 32.728C194.37 32.472 193.804 32.1147 193.335 31.656L193.751 30.872C194.274 31.3307 194.807 31.6773 195.351 31.912C195.906 32.136 196.492 32.248 197.111 32.248C197.943 32.248 198.583 32.0507 199.031 31.656C199.49 31.2507 199.719 30.6747 199.719 29.928C199.719 28.4133 198.78 27.656 196.903 27.656H195.687V26.776H196.663C197.559 26.776 198.247 26.5733 198.727 26.168C199.218 25.752 199.463 25.16 199.463 24.392C199.463 23.7413 199.266 23.24 198.871 22.888C198.476 22.5253 197.922 22.344 197.207 22.344C196.087 22.344 194.994 22.8027 193.927 23.72L193.511 22.936C193.97 22.4773 194.524 22.12 195.175 21.864C195.836 21.608 196.519 21.48 197.223 21.48C198.215 21.48 199.004 21.7413 199.591 22.264C200.178 22.776 200.471 23.4693 200.471 24.344C200.471 25.0053 200.306 25.5867 199.975 26.088C199.655 26.5787 199.212 26.9307 198.647 27.144ZM210.511 21.48C211.855 21.48 212.89 21.9547 213.615 22.904C214.351 23.8533 214.719 25.2133 214.719 26.984C214.719 28.9253 214.34 30.4347 213.583 31.512C212.836 32.5893 211.786 33.128 210.431 33.128C209.791 33.128 209.162 33.0053 208.543 32.76C207.935 32.504 207.391 32.1413 206.911 31.672L207.327 30.888C207.882 31.368 208.404 31.72 208.895 31.944C209.396 32.1573 209.908 32.264 210.431 32.264C211.466 32.264 212.271 31.8 212.847 30.872C213.434 29.944 213.727 28.648 213.727 26.984V26.536C213.492 27.208 213.082 27.736 212.495 28.12C211.908 28.504 211.236 28.696 210.479 28.696C209.775 28.696 209.151 28.5467 208.607 28.248C208.063 27.9387 207.642 27.512 207.343 26.968C207.044 26.424 206.895 25.8 206.895 25.096C206.895 24.4027 207.05 23.784 207.359 23.24C207.668 22.6853 208.095 22.2533 208.639 21.944C209.194 21.6347 209.818 21.48 210.511 21.48ZM210.559 27.816C211.092 27.816 211.567 27.704 211.983 27.48C212.41 27.2453 212.74 26.92 212.975 26.504C213.21 26.088 213.327 25.6187 213.327 25.096C213.327 24.2747 213.066 23.6133 212.543 23.112C212.031 22.6 211.364 22.344 210.543 22.344C209.754 22.344 209.114 22.5947 208.623 23.096C208.143 23.5973 207.903 24.264 207.903 25.096C207.903 25.9067 208.148 26.5627 208.639 27.064C209.13 27.5653 209.77 27.816 210.559 27.816ZM220.825 25.912C221.529 25.912 222.153 26.0667 222.697 26.376C223.241 26.6747 223.662 27.096 223.961 27.64C224.259 28.184 224.409 28.808 224.409 29.512C224.409 30.2053 224.254 30.8293 223.945 31.384C223.635 31.928 223.203 32.3547 222.649 32.664C222.105 32.9733 221.486 33.128 220.793 33.128C219.449 33.128 218.409 32.6533 217.673 31.704C216.947 30.7547 216.585 29.3947 216.585 27.624C216.585 25.6827 216.958 24.1733 217.705 23.096C218.462 22.0187 219.518 21.48 220.873 21.48C221.513 21.48 222.137 21.608 222.745 21.864C223.363 22.1093 223.913 22.4667 224.393 22.936L223.977 23.72C223.433 23.2507 222.91 22.904 222.409 22.68C221.907 22.456 221.395 22.344 220.873 22.344C219.838 22.344 219.027 22.808 218.441 23.736C217.865 24.664 217.577 25.96 217.577 27.624V28.056C217.811 27.3947 218.222 26.872 218.809 26.488C219.395 26.104 220.067 25.912 220.825 25.912ZM220.761 32.264C221.55 32.264 222.185 32.0133 222.665 31.512C223.155 31.0107 223.401 30.344 223.401 29.512C223.401 28.7013 223.155 28.0453 222.665 27.544C222.174 27.0427 221.534 26.792 220.745 26.792C220.211 26.792 219.731 26.9093 219.305 27.144C218.889 27.368 218.563 27.688 218.329 28.104C218.094 28.52 217.977 28.9893 217.977 29.512C217.977 30.3333 218.233 31 218.745 31.512C219.267 32.0133 219.939 32.264 220.761 32.264ZM230.914 32.136H233.426V33H227.394V32.136H229.922V22.92L227.57 24.44V23.432L230.354 21.608H230.914V32.136ZM240.044 25.928C240.769 25.928 241.399 26.0773 241.932 26.376C242.465 26.6747 242.876 27.096 243.164 27.64C243.452 28.184 243.596 28.808 243.596 29.512C243.596 30.216 243.441 30.84 243.132 31.384C242.833 31.928 242.401 32.3547 241.836 32.664C241.271 32.9627 240.615 33.112 239.868 33.112C239.196 33.112 238.524 32.984 237.852 32.728C237.191 32.4613 236.631 32.104 236.172 31.656L236.588 30.872C237.655 31.7893 238.753 32.248 239.884 32.248C240.716 32.248 241.372 32.0027 241.852 31.512C242.343 31.0107 242.588 30.344 242.588 29.512C242.588 28.712 242.348 28.0613 241.868 27.56C241.388 27.048 240.759 26.792 239.98 26.792C239.383 26.792 238.86 26.9147 238.412 27.16C237.964 27.3947 237.575 27.7627 237.244 28.264H236.476V21.608H243.164V22.456H237.468V27C237.777 26.6587 238.151 26.3973 238.588 26.216C239.036 26.024 239.521 25.928 240.044 25.928ZM253.414 29.56V30.408H251.654V33H250.662V30.408H245.27V29.656L250.838 21.608H251.654V29.56H253.414ZM246.374 29.56H250.662V23.368L246.374 29.56Z" fill="black"/>
<path d="M42.3815 19.0001H21.6185C20.6084 19.0001 19.7896 19.8189 19.7896 20.829V33.1711C19.7896 34.1812 20.6084 35 21.6185 35H42.3815C43.3916 35 44.2105 34.1812 44.2105 33.1711V20.829C44.2105 19.8189 43.3917 19.0001 42.3815 19.0001Z" fill="#41479B"/>
<path d="M44.1852 20.5266C44.041 19.6605 43.2886 19 42.3815 19H41.9057L34.1053 24.1106V19H29.8948V24.1107L22.0944 19H21.6185C20.7114 19 19.959 19.6605 19.8149 20.5267L26.4819 24.8948H19.7896V29.1053H26.4819L19.8149 33.4733C19.959 34.3394 20.7114 35 21.6185 35H22.0944L29.8948 29.8893V35H34.1053V29.8893L41.9057 35H42.3815C43.2886 35 44.041 34.3395 44.1852 33.4733L37.5181 29.1052H44.2105V24.8947H37.5181L44.1852 20.5266Z" fill="#F5F5F5"/>
<path d="M33.2632 19.0001H30.7369V25.7369H19.7896V28.2632H30.7369V35H33.2632V28.2632H44.2105V25.7369H33.2632V19.0001Z" fill="#FF4B55"/>
<path d="M20.9721 34.8821L29.8716 29.1053H28.3248L20.2295 34.3602C20.4276 34.5914 20.6821 34.7725 20.9721 34.8821Z" fill="#FF4B55"/>
<path d="M36.3112 29.1053H34.7645L43.3842 34.7004C43.6254 34.542 43.8266 34.328 43.9702 34.0768L36.3112 29.1053Z" fill="#FF4B55"/>
<path d="M19.9827 20.0112L27.5059 24.8948H29.0527L20.5277 19.361C20.2988 19.5313 20.1114 19.7541 19.9827 20.0112Z" fill="#FF4B55"/>
<path d="M35.652 24.8947L43.7622 19.6302C43.5619 19.3997 43.3053 19.2196 43.0134 19.1122L34.1053 24.8947H35.652Z" fill="#FF4B55"/>
<path d="M61.644 27.45V28.486H58.718V31.426H57.682V28.486H54.756V27.45H57.682V24.524H58.718V27.45H61.644ZM70.3885 28.766V29.928H68.9185V32H67.4905V29.928H63.0245V28.85L67.7565 22.032H68.9185V28.766H70.3885ZM64.4385 28.766H67.4905V24.37L64.4385 28.766ZM78.7831 28.766V29.928H77.3131V32H75.8851V29.928H71.4191V28.85L76.1511 22.032H77.3131V28.766H78.7831ZM72.8331 28.766H75.8851V24.37L72.8331 28.766Z" fill="#151718"/>
<path d="M114 23L107.2 30.6L100 23" stroke="black" stroke-linecap="round"/>
<line opacity="0.1" x1="134.5" y1="5" x2="134.5" y2="49" stroke="#151718"/>
</svg>
