<svg width="70" height="70" viewBox="0 0 70 70" fill="none" xmlns="http://www.w3.org/2000/svg">
<circle opacity="0.05" cx="35" cy="35" r="35" fill="#641A89"/>
<path fill-rule="evenodd" clip-rule="evenodd" d="M26.2121 27.5447V54.2208C26.2121 55.0208 26.4648 55.2524 27.328 55.2524H40.2976V27.5447C40.2976 26.2604 37.7289 25.5445 37.7289 27.1868V34.998H28.8018V26.113C27.5386 26.3867 26.2121 26.2393 26.2121 27.5447Z" fill="#641A89"/>
<path fill-rule="evenodd" clip-rule="evenodd" d="M48.0877 54.5576C48.8457 56.0736 48.172 56.6841 46.6139 55.9893C46.9508 54.7471 46.8034 54.8735 48.0877 54.5576ZM45.877 55.2524C45.877 56.2209 46.0455 56.242 46.235 57.0631C49.2879 57.7158 48.6352 57.021 49.73 55.0629C50.6775 53.3786 49.7511 54.8313 51.4144 53.8207C52.2144 53.3575 52.5513 52.9996 52.5513 51.7153C52.5513 49.5467 50.488 50.8942 54.9305 43.6725C56.5938 40.9985 56.3622 41.8197 58.0886 41.0196C60.8257 39.7984 61.8995 35.6928 59.2256 34.998C58.6571 37.2719 58.1729 37.4824 56.6359 37.4824C53.8988 37.4824 56.0253 34.1979 56.278 33.2294C52.9092 33.2926 52.1934 35.4401 52.1934 37.8404C52.1934 40.4301 53.5619 38.5352 52.2355 42.1565C51.6881 43.6935 51.0775 44.8305 50.6985 46.3674C49.0773 45.2515 45.7086 36.2823 44.6348 34.0505C44.2348 33.2505 44.0032 32.8294 43.6874 32.0925L42.5294 30.0291C42.5294 32.6188 42.5294 35.2506 42.5294 37.8404C42.5083 43.1671 43.3926 43.9883 46.256 49.9467C48.5299 54.6419 45.877 53.1049 45.877 55.2524Z" fill="#641A89"/>
<path fill-rule="evenodd" clip-rule="evenodd" d="M17.3061 44.5989C15.6638 42.8092 16.4428 43.1461 14.7163 43.5251C14.2321 41.5459 13.0109 40.3458 12.3793 38.3036C11.9372 36.8718 12.3372 36.8087 11.6003 35.4822C10.9686 34.3874 10.6107 34.3453 10.2528 32.8715C9.26323 32.9557 9.24217 33.0189 8.39999 33.2294C8.73687 37.1666 10.716 37.9035 11.3266 39.2931C15.1164 47.757 12.4846 42.7882 12.4846 44.9568C12.4846 46.6832 13.2004 46.8517 14.3374 47.4412L14.4426 50.2415C14.3795 51.61 13.5373 51.7153 14.4426 52.9996C15.3059 54.2629 15.8954 53.6312 16.7586 54.7471C16.9902 55.0629 17.8114 56.9368 18.064 57.4L21.0327 56.3683C21.7907 55.842 21.3696 56.5578 21.7486 55.6314C21.7907 55.5683 21.8117 55.3788 21.8117 55.4209L21.8959 54.9998C21.8117 53.526 20.2537 52.0732 20.2537 50.9994C20.2537 49.2519 23.3908 44.1567 24.0435 42.1776C24.8436 39.8195 24.3593 33.2505 24.3593 30.0291C23.3698 30.7029 17.7061 42.9777 17.3061 44.5989Z" fill="#641A89"/>
<path fill-rule="evenodd" clip-rule="evenodd" d="M26.949 17.9228C26.949 25.8182 35.6867 25.2287 38.15 22.6179C43.6663 16.828 34.9708 9.47993 29.1598 14.0066C28.3176 14.6804 26.949 16.4911 26.949 17.9228Z" fill="#641A89"/>
</svg>
