<svg width="70" height="70" viewBox="0 0 70 70" fill="none" xmlns="http://www.w3.org/2000/svg">
<circle opacity="0.05" cx="35" cy="35" r="35" fill="#641A89"/>
<path d="M29.144 46.5895C28.0206 47.615 26.5546 48.1835 25.0336 48.1835C23.5126 48.1835 22.0465 47.615 20.9232 46.5896C19.0367 47.68 16.1411 50.8711 17.691 53.1771C17.9283 53.5085 18.2412 53.7787 18.6036 53.9652C18.966 54.1518 19.3676 54.2494 19.7752 54.25H30.2851C30.6927 54.2494 31.0944 54.1518 31.4568 53.9652C31.8192 53.7787 32.132 53.5085 32.3694 53.1771C33.9175 50.8745 31.0206 47.6803 29.144 46.5895Z" fill="#641A89"/>
<path d="M29.7316 42.1274C29.5179 35.89 20.5278 35.9044 20.3219 42.1273C20.5288 48.3231 29.5046 48.378 29.7316 42.1274Z" fill="#641A89"/>
<path d="M40.2689 42.1273C40.4941 48.3743 49.4699 48.3271 49.6787 42.1274C49.4747 35.9071 40.4839 35.8874 40.2689 42.1273Z" fill="#641A89"/>
<path d="M49.0841 46.5895C47.962 47.6173 46.4954 48.1874 44.9737 48.1874C43.452 48.1874 41.9855 47.6173 40.8633 46.5896C38.9884 47.68 36.0787 50.8722 37.6312 53.1771C37.8685 53.5085 38.1813 53.7787 38.5438 53.9652C38.9062 54.1518 39.3078 54.2494 39.7154 54.25H50.2254C50.633 54.2494 51.0346 54.1518 51.397 53.9652C51.7594 53.7787 52.0722 53.5085 52.3096 53.1771C53.8573 50.8718 50.9661 47.6818 49.0841 46.5895Z" fill="#641A89"/>
<path d="M32.7316 28.1938H37.7269L42.155 31.7404C42.2558 31.8187 42.3764 31.8674 42.5034 31.8809C42.6303 31.8944 42.7586 31.8722 42.8736 31.8169C42.9886 31.7615 43.0859 31.6751 43.1545 31.5674C43.2232 31.4598 43.2604 31.3351 43.262 31.2074V28.1938H45.0456C45.5526 28.1923 46.0384 27.9903 46.3969 27.6318C46.7554 27.2733 46.9574 26.7874 46.9589 26.2804V17.6634C46.9586 17.1561 46.7569 16.6696 46.3982 16.3108C46.0394 15.952 45.5529 15.7503 45.0456 15.75H32.7316C32.2242 15.7503 31.7377 15.952 31.379 16.3108C31.0202 16.6696 30.8185 17.1561 30.8182 17.6634V26.2804C30.8197 26.7874 31.0217 27.2733 31.3802 27.6318C31.7387 27.9903 32.2246 28.1923 32.7316 28.1938Z" fill="#641A89"/>
<path d="M29.4515 26.2804V21.9685H24.7637C24.3071 21.9689 23.8693 22.1505 23.5465 22.4733C23.2236 22.7962 23.042 23.234 23.0416 23.6906V30.9409C23.042 31.3975 23.2236 31.8353 23.5465 32.1581C23.8693 32.481 24.3071 32.6626 24.7637 32.663H26.1509V35.0957C26.1535 35.2237 26.1917 35.3484 26.2611 35.456C26.3304 35.5635 26.4283 35.6498 26.5437 35.705C26.6592 35.7603 26.7877 35.7824 26.915 35.7689C27.0423 35.7555 27.1634 35.7069 27.2647 35.6287L30.9617 32.663H35.1301C35.5867 32.6626 36.0245 32.481 36.3473 32.1581C36.6702 31.8353 36.8518 31.3975 36.8522 30.9409V29.5605H32.7316C31.8617 29.5603 31.0275 29.2146 30.4124 28.5996C29.7974 27.9845 29.4517 27.1503 29.4515 26.2804Z" fill="#641A89"/>
</svg>
