<svg width="70" height="70" viewBox="0 0 70 70" fill="none" xmlns="http://www.w3.org/2000/svg">
<circle opacity="0.05" cx="35" cy="35" r="35" fill="#641A89"/>
<path d="M52.875 28.2728V22.625C52.875 21.8957 52.5853 21.1962 52.0695 20.6805C51.5538 20.1647 50.8543 19.875 50.125 19.875H19.875C19.1457 19.875 18.4462 20.1647 17.9305 20.6805C17.4147 21.1962 17.125 21.8957 17.125 22.625V44.625C17.125 45.3543 17.4147 46.0538 17.9305 46.5695C18.4462 47.0853 19.1457 47.375 19.875 47.375H39.125V51.5C39.1248 51.7345 39.1846 51.9651 39.2987 52.17C39.4128 52.3749 39.5774 52.5472 39.7769 52.6705C39.9763 52.7938 40.204 52.8641 40.4383 52.8746C40.6725 52.8851 40.9056 52.8356 41.1153 52.7306L46 50.2866L50.8847 52.7306C51.0944 52.8356 51.3275 52.8851 51.5617 52.8746C51.796 52.8641 52.0237 52.7938 52.2231 52.6705C52.4226 52.5472 52.5872 52.3749 52.7013 52.17C52.8154 51.9651 52.8752 51.7345 52.875 51.5V41.7272C54.6377 39.9317 55.6252 37.5161 55.6252 35C55.6252 32.4839 54.6377 30.0683 52.875 28.2728ZM35 37.75H25.375C25.0103 37.75 24.6606 37.6051 24.4027 37.3473C24.1449 37.0894 24 36.7397 24 36.375C24 36.0103 24.1449 35.6606 24.4027 35.4027C24.6606 35.1449 25.0103 35 25.375 35H35C35.3647 35 35.7144 35.1449 35.9723 35.4027C36.2301 35.6606 36.375 36.0103 36.375 36.375C36.375 36.7397 36.2301 37.0894 35.9723 37.3473C35.7144 37.6051 35.3647 37.75 35 37.75ZM35 32.25H25.375C25.0103 32.25 24.6606 32.1051 24.4027 31.8473C24.1449 31.5894 24 31.2397 24 30.875C24 30.5103 24.1449 30.1606 24.4027 29.9027C24.6606 29.6449 25.0103 29.5 25.375 29.5H35C35.3647 29.5 35.7144 29.6449 35.9723 29.9027C36.2301 30.1606 36.375 30.5103 36.375 30.875C36.375 31.2397 36.2301 31.5894 35.9723 31.8473C35.7144 32.1051 35.3647 32.25 35 32.25ZM50.125 49.2759L46.6153 47.5194C46.4243 47.4238 46.2136 47.374 46 47.374C45.7864 47.374 45.5757 47.4238 45.3847 47.5194L41.875 49.2759V43.6952C43.164 44.3074 44.573 44.625 46 44.625C47.427 44.625 48.836 44.3074 50.125 43.6952V49.2759ZM46 41.875C44.6402 41.875 43.311 41.4718 42.1805 40.7164C41.0499 39.9609 40.1687 38.8872 39.6483 37.631C39.128 36.3747 38.9918 34.9924 39.2571 33.6588C39.5224 32.3251 40.1772 31.1001 41.1386 30.1386C42.1001 29.1772 43.3251 28.5224 44.6587 28.2571C45.9924 27.9918 47.3747 28.128 48.6309 28.6483C49.8872 29.1687 50.9609 30.0499 51.7163 31.1805C52.4718 32.311 52.875 33.6403 52.875 35C52.875 36.8234 52.1507 38.5721 50.8614 39.8614C49.572 41.1507 47.8234 41.875 46 41.875Z" fill="#641A89"/>
</svg>
