<svg width="114" height="115" viewBox="0 0 114 115" fill="none" xmlns="http://www.w3.org/2000/svg">
<path opacity="0.7" d="M27.0001 54.307H85.5676" stroke="url(#paint0_linear_0_288)" stroke-width="0.768341" stroke-linecap="round"/>
<path opacity="0.7" d="M56.2929 24.8525L56.2929 49.4131" stroke="url(#paint1_linear_0_288)" stroke-width="0.768341" stroke-linecap="round"/>
<path d="M36.2905 75.7754V73.2249L40.3335 69.0118C40.8248 68.508 41.1774 68.0672 41.3915 67.6893C41.6057 67.3114 41.7127 66.9273 41.7127 66.5368C41.7127 66.0582 41.549 65.6993 41.2215 65.46C40.9066 65.2207 40.4469 65.101 39.8423 65.101C39.3385 65.101 38.8221 65.1955 38.2931 65.3844C37.7767 65.5607 37.254 65.8504 36.725 66.2535L35.6482 63.7218C36.2401 63.2684 36.9517 62.9094 37.783 62.6449C38.6143 62.3804 39.4708 62.2482 40.3524 62.2482C41.9016 62.2482 43.0793 62.582 43.8854 63.2495C44.7041 63.9171 45.1134 64.8806 45.1134 66.1401C45.1134 66.9462 44.9245 67.7208 44.5466 68.4639C44.1814 69.1944 43.5705 69.9753 42.714 70.8066L39.6156 73.8294V72.9415H45.6046V75.7754H36.2905ZM52.3797 75.7754V73.5272H46.9008V71.1089L52.9087 62.456H55.686V70.9389H57.4241V73.5272H55.686V75.7754H52.3797ZM52.3797 70.9389V66.5746H52.8709L49.338 71.7323V70.9389H52.3797ZM61.3275 68.3883C60.7229 68.3883 60.1813 68.2561 59.7027 67.9916C59.2367 67.7145 58.8652 67.3429 58.5881 66.8769C58.311 66.4109 58.1724 65.8882 58.1724 65.3088C58.1724 64.7168 58.311 64.1941 58.5881 63.7407C58.8652 63.2873 59.243 62.9283 59.7216 62.6638C60.2002 62.3867 60.7355 62.2482 61.3275 62.2482C61.9321 62.2482 62.4737 62.3804 62.9523 62.6449C63.4309 62.9094 63.8025 63.2747 64.0669 63.7407C64.344 64.1941 64.4826 64.7168 64.4826 65.3088C64.4826 65.9008 64.344 66.4298 64.0669 66.8958C63.8025 67.3618 63.4309 67.7271 62.9523 67.9916C62.4737 68.2561 61.9321 68.3883 61.3275 68.3883ZM61.3275 66.6691C61.7054 66.6691 62.0139 66.5368 62.2532 66.2723C62.4926 66.0078 62.6122 65.693 62.6122 65.3277C62.6122 64.9499 62.4926 64.6287 62.2532 64.3642C62.0139 64.0997 61.7054 63.9674 61.3275 63.9674C60.9622 63.9674 60.66 64.0997 60.4207 64.3642C60.1813 64.6287 60.0617 64.9499 60.0617 65.3277C60.0617 65.693 60.1813 66.0078 60.4207 66.2723C60.66 66.5368 60.9622 66.6691 61.3275 66.6691ZM72.6816 75.9832C71.2331 75.9832 69.9799 75.6998 68.9219 75.133C67.8765 74.5663 67.0642 73.7665 66.4848 72.7337C65.918 71.7009 65.6346 70.4917 65.6346 69.1063C65.6346 67.7208 65.918 66.518 66.4848 65.4977C67.0642 64.4649 67.8765 63.6652 68.9219 63.0984C69.9799 62.5316 71.2331 62.2482 72.6816 62.2482C73.601 62.2482 74.4386 62.3741 75.1943 62.6261C75.95 62.8654 76.5861 63.2117 77.1025 63.6652L76.0634 66.4046C75.484 65.989 74.9487 65.6993 74.4575 65.5355C73.9789 65.3592 73.431 65.271 72.8138 65.271C71.6803 65.271 70.8049 65.6048 70.1878 66.2723C69.5832 66.9273 69.2809 67.8719 69.2809 69.1063C69.2809 70.3532 69.5832 71.3104 70.1878 71.978C70.8049 72.6329 71.6803 72.9604 72.8138 72.9604C73.431 72.9604 73.9789 72.8785 74.4575 72.7148C74.9487 72.5384 75.484 72.2425 76.0634 71.8268L77.1025 74.5663C76.5861 75.0197 75.95 75.3723 75.1943 75.6242C74.4386 75.8636 73.601 75.9832 72.6816 75.9832Z" fill="#424242"/>
<path d="M26.7086 89.6968V83.4968H25.1786V82.8168H28.9886V83.4968H27.4586V89.6968H26.7086ZM30.8494 89.6968V82.8168H34.0994V83.4768H31.5994V85.8868H33.7694V86.5468H31.5994V89.0368H34.0994V89.6968H30.8494ZM40.6956 89.6968V84.1268H40.6556L39.1256 89.6968H38.4456L36.9256 84.1268H36.8856V89.6968H36.1756V82.8168H37.2556L38.7756 88.4068H38.8356L40.3656 82.8168H41.4256V89.6968H40.6956ZM43.826 82.8168H45.866C46.3326 82.8168 46.6826 82.9101 46.916 83.0968C47.1493 83.2768 47.2993 83.5168 47.366 83.8168C47.4393 84.1101 47.476 84.4968 47.476 84.9768C47.476 85.4434 47.4393 85.8268 47.366 86.1268C47.2993 86.4201 47.1493 86.6601 46.916 86.8468C46.6826 87.0334 46.3326 87.1268 45.866 87.1268H44.576V89.6968H43.826V82.8168ZM45.666 86.4768C45.986 86.4768 46.2193 86.4234 46.366 86.3168C46.5193 86.2101 46.616 86.0568 46.656 85.8568C46.7026 85.6501 46.726 85.3568 46.726 84.9768C46.726 84.5901 46.7026 84.2968 46.656 84.0968C46.616 83.8901 46.5226 83.7368 46.376 83.6368C46.2293 83.5301 45.996 83.4768 45.676 83.4768H44.576V86.4768H45.666ZM49.4744 89.6968V82.8168H52.7244V83.4768H50.2244V85.8868H52.3944V86.5468H50.2244V89.0368H52.7244V89.6968H49.4744ZM57.8406 89.6968L56.9806 86.9268H56.8406H55.5506V89.6968H54.8006V82.8168H56.9006C57.3739 82.8168 57.7273 82.9034 57.9606 83.0768C58.1939 83.2501 58.3439 83.4801 58.4106 83.7668C58.4839 84.0534 58.5206 84.4234 58.5206 84.8768C58.5206 85.3768 58.4673 85.7901 58.3606 86.1168C58.2606 86.4368 58.0406 86.6634 57.7006 86.7968L58.6306 89.6968H57.8406ZM56.7106 86.2768C57.0239 86.2768 57.2573 86.2268 57.4106 86.1268C57.5639 86.0268 57.6606 85.8834 57.7006 85.6968C57.7473 85.5034 57.7706 85.2301 57.7706 84.8768C57.7706 84.5168 57.7473 84.2434 57.7006 84.0568C57.6606 83.8701 57.5673 83.7268 57.4206 83.6268C57.2739 83.5268 57.0406 83.4768 56.7206 83.4768H55.5506V86.2768H56.7106ZM64.0222 89.6968L63.5422 87.7868H61.4322L60.9622 89.6968H60.2122L62.0122 82.8168H62.9922L64.7922 89.6968H64.0222ZM62.5122 83.7268H62.4622L61.6122 87.1268H63.3622L62.5122 83.7268ZM67.1461 89.6968V83.4968H65.6161V82.8168H69.4261V83.4968H67.8961V89.6968H67.1461ZM75.0769 82.8168V86.7068C75.0769 87.6001 75.0369 88.2501 74.9569 88.6568C74.8769 89.0634 74.7036 89.3534 74.4369 89.5268C74.1769 89.6934 73.7502 89.7768 73.1569 89.7768C72.5636 89.7768 72.1336 89.6934 71.8669 89.5268C71.6002 89.3534 71.4269 89.0634 71.3469 88.6568C71.2669 88.2434 71.2269 87.5934 71.2269 86.7068V82.8168H71.9769V87.0468C71.9769 87.6801 72.0002 88.1301 72.0469 88.3968C72.0936 88.6634 72.1936 88.8501 72.3469 88.9568C72.5069 89.0634 72.7769 89.1168 73.1569 89.1168C73.5369 89.1168 73.8036 89.0634 73.9569 88.9568C74.1169 88.8501 74.2169 88.6634 74.2569 88.3968C74.3036 88.1301 74.3269 87.6801 74.3269 87.0468V82.8168H75.0769ZM80.4636 89.6968L79.6036 86.9268H79.4636H78.1736V89.6968H77.4236V82.8168H79.5236C79.997 82.8168 80.3503 82.9034 80.5836 83.0768C80.817 83.2501 80.967 83.4801 81.0336 83.7668C81.107 84.0534 81.1436 84.4234 81.1436 84.8768C81.1436 85.3768 81.0903 85.7901 80.9836 86.1168C80.8836 86.4368 80.6636 86.6634 80.3236 86.7968L81.2536 89.6968H80.4636ZM79.3336 86.2768C79.647 86.2768 79.8803 86.2268 80.0336 86.1268C80.187 86.0268 80.2836 85.8834 80.3236 85.6968C80.3703 85.5034 80.3936 85.2301 80.3936 84.8768C80.3936 84.5168 80.3703 84.2434 80.3236 84.0568C80.2836 83.8701 80.1903 83.7268 80.0436 83.6268C79.897 83.5268 79.6636 83.4768 79.3436 83.4768H78.1736V86.2768H79.3336ZM83.3553 89.6968V82.8168H86.6053V83.4768H84.1053V85.8868H86.2753V86.5468H84.1053V89.0368H86.6053V89.6968H83.3553Z" fill="#151718"/>
<path d="M32.7922 44.2435V43.5283L34.554 41.6912C34.7748 41.4603 34.9379 41.247 35.0433 41.0512C35.1487 40.8555 35.2014 40.6547 35.2014 40.4489C35.2014 40.1929 35.1211 39.9997 34.9605 39.8692C34.7999 39.7387 34.5665 39.6734 34.2603 39.6734C34.0144 39.6734 33.7785 39.7186 33.5526 39.8089C33.3267 39.8943 33.1059 40.0298 32.89 40.2155L32.5738 39.4927C32.7896 39.302 33.0557 39.1489 33.3719 39.0334C33.6931 38.918 34.0294 38.8603 34.3808 38.8603C34.953 38.8603 35.3922 38.9883 35.6984 39.2443C36.0045 39.5002 36.1576 39.8667 36.1576 40.3435C36.1576 40.6748 36.0798 40.991 35.9242 41.2921C35.7686 41.5883 35.5277 41.8995 35.2014 42.2257L33.7333 43.6939V43.4379H36.3684V44.2435H32.7922ZM38.9781 44.3188C38.3557 44.3188 37.8763 44.0829 37.54 43.6111C37.2037 43.1343 37.0356 42.4566 37.0356 41.5783C37.0356 40.6898 37.2037 40.0147 37.54 39.5529C37.8763 39.0912 38.3557 38.8603 38.9781 38.8603C39.6055 38.8603 40.0848 39.0912 40.4161 39.5529C40.7524 40.0147 40.9206 40.6873 40.9206 41.5707C40.9206 42.4541 40.7524 43.1343 40.4161 43.6111C40.0848 44.0829 39.6055 44.3188 38.9781 44.3188ZM38.9781 43.5207C39.3194 43.5207 39.5729 43.3651 39.7385 43.0539C39.9042 42.7377 39.987 42.2433 39.987 41.5707C39.987 40.8981 39.9042 40.4113 39.7385 40.1101C39.5729 39.8039 39.3194 39.6508 38.9781 39.6508C38.6418 39.6508 38.3883 39.8039 38.2177 40.1101C38.052 40.4113 37.9692 40.8981 37.9692 41.5707C37.9692 42.2433 38.052 42.7377 38.2177 43.0539C38.3883 43.3651 38.6418 43.5207 38.9781 43.5207ZM42.6644 41.1867C42.4385 41.1867 42.2352 41.1365 42.0545 41.0362C41.8788 40.9308 41.7383 40.7902 41.6329 40.6145C41.5325 40.4389 41.4823 40.2406 41.4823 40.0197C41.4823 39.7989 41.5325 39.6031 41.6329 39.4325C41.7383 39.2568 41.8788 39.1188 42.0545 39.0184C42.2352 38.913 42.4385 38.8603 42.6644 38.8603C42.8902 38.8603 43.091 38.9105 43.2667 39.0109C43.4424 39.1112 43.5804 39.2493 43.6808 39.4249C43.7862 39.6006 43.8389 39.7989 43.8389 40.0197C43.8389 40.2406 43.7862 40.4414 43.6808 40.6221C43.5804 40.7977 43.4424 40.9358 43.2667 41.0362C43.091 41.1365 42.8902 41.1867 42.6644 41.1867ZM42.6644 40.6522C42.84 40.6522 42.9831 40.5919 43.0935 40.4715C43.2039 40.351 43.2592 40.2004 43.2592 40.0197C43.2592 39.8441 43.2039 39.696 43.0935 39.5755C42.9831 39.4551 42.84 39.3948 42.6644 39.3948C42.4887 39.3948 42.3431 39.4551 42.2277 39.5755C42.1173 39.696 42.062 39.8441 42.062 40.0197C42.062 40.2004 42.1173 40.351 42.2277 40.4715C42.3431 40.5919 42.4887 40.6522 42.6644 40.6522ZM47.0699 44.3188C46.5178 44.3188 46.0435 44.2084 45.6469 43.9875C45.2554 43.7617 44.9543 43.4455 44.7434 43.0389C44.5326 42.6273 44.4272 42.1429 44.4272 41.5858C44.4272 41.0286 44.5326 40.5468 44.7434 40.1402C44.9543 39.7336 45.2554 39.4199 45.6469 39.1991C46.0435 38.9732 46.5178 38.8603 47.0699 38.8603C47.4413 38.8603 47.7751 38.913 48.0713 39.0184C48.3724 39.1238 48.6309 39.2794 48.8468 39.4852L48.5305 40.2531C48.2946 40.0624 48.0663 39.9269 47.8454 39.8466C47.6296 39.7612 47.3811 39.7186 47.1 39.7186C46.563 39.7186 46.1514 39.8817 45.8653 40.208C45.5842 40.5292 45.4436 40.9885 45.4436 41.5858C45.4436 42.1831 45.5842 42.6449 45.8653 42.9711C46.1514 43.2974 46.563 43.4605 47.1 43.4605C47.3811 43.4605 47.6296 43.4204 47.8454 43.34C48.0663 43.2547 48.2946 43.1142 48.5305 42.9184L48.8468 43.6864C48.6309 43.8872 48.3724 44.0428 48.0713 44.1532C47.7751 44.2636 47.4413 44.3188 47.0699 44.3188Z" fill="#424242"/>
<path d="M38.2918 34.2155C37.9707 34.2155 37.6741 34.1758 37.402 34.0965C37.1337 34.0133 36.9032 33.9 36.7105 33.7564L36.9372 33.1839C37.0657 33.2746 37.1998 33.3521 37.3397 33.4163C37.4795 33.4768 37.6287 33.524 37.7874 33.558C37.9461 33.5883 38.1143 33.6034 38.2918 33.6034C38.5904 33.6034 38.8057 33.5542 38.938 33.456C39.0702 33.3578 39.1364 33.2293 39.1364 33.0706C39.1364 32.9308 39.091 32.825 39.0003 32.7532C38.9096 32.6776 38.7472 32.6153 38.5129 32.5662L37.8724 32.4358C37.5059 32.3602 37.232 32.2336 37.0506 32.0561C36.8692 31.8785 36.7785 31.6404 36.7785 31.3419C36.7785 31.0925 36.8447 30.8753 36.9769 30.6901C37.1092 30.505 37.2943 30.3614 37.5324 30.2594C37.7704 30.1573 38.0481 30.1063 38.3655 30.1063C38.6489 30.1063 38.9115 30.1479 39.1534 30.231C39.3952 30.3104 39.5973 30.4256 39.7598 30.5768L39.5331 31.1209C39.3706 30.9848 39.193 30.8847 39.0003 30.8205C38.8076 30.7525 38.5922 30.7184 38.3542 30.7184C38.0859 30.7184 37.8762 30.7713 37.7251 30.8771C37.5777 30.9792 37.504 31.1209 37.504 31.3022C37.504 31.442 37.5494 31.5535 37.64 31.6366C37.7345 31.7198 37.8932 31.784 38.1161 31.8293L38.7509 31.954C39.1288 32.0296 39.4084 32.1543 39.5898 32.3281C39.7711 32.4981 39.8618 32.7286 39.8618 33.0196C39.8618 33.2576 39.7976 33.4673 39.6691 33.6487C39.5407 33.8263 39.3593 33.9661 39.125 34.0681C38.8907 34.1664 38.613 34.2155 38.2918 34.2155ZM41.8769 34.2155C41.397 34.2155 41.0211 34.0832 40.749 33.8187C40.477 33.5542 40.3409 33.1915 40.3409 32.7305C40.3409 32.432 40.3995 32.1713 40.5166 31.9484C40.6338 31.7254 40.7963 31.5516 41.0041 31.4269C41.2157 31.3022 41.4613 31.2399 41.7409 31.2399C42.0167 31.2399 42.2472 31.2985 42.4324 31.4156C42.6175 31.5327 42.7573 31.6971 42.8518 31.9087C42.95 32.1203 42.9991 32.3678 42.9991 32.6512V32.8382H40.9134V32.4641H42.4947L42.3984 32.5435C42.3984 32.279 42.3417 32.0768 42.2283 31.937C42.1187 31.7972 41.9582 31.7273 41.7466 31.7273C41.5123 31.7273 41.3309 31.8104 41.2024 31.9767C41.0778 32.143 41.0154 32.3753 41.0154 32.6738V32.7475C41.0154 33.0574 41.091 33.2897 41.2421 33.4447C41.397 33.5958 41.6143 33.6714 41.8939 33.6714C42.0564 33.6714 42.2075 33.6506 42.3473 33.609C42.4909 33.5637 42.627 33.4919 42.7554 33.3937L42.9651 33.8698C42.8291 33.9793 42.6666 34.0643 42.4777 34.1248C42.2888 34.1853 42.0885 34.2155 41.8769 34.2155ZM44.8123 34.2155C44.4722 34.2155 44.2153 34.1267 44.0414 33.9491C43.8676 33.7715 43.7807 33.5051 43.7807 33.1499V31.8293H43.231V31.2966H43.7807V30.5654L44.4892 30.384V31.2966H45.2544V31.8293H44.4892V33.1046C44.4892 33.3011 44.527 33.439 44.6026 33.5184C44.6781 33.5977 44.782 33.6374 44.9143 33.6374C44.9861 33.6374 45.0465 33.6317 45.0957 33.6204C45.1486 33.609 45.1996 33.5939 45.2487 33.575V34.1361C45.1845 34.1626 45.1127 34.1815 45.0333 34.1928C44.9577 34.2079 44.8841 34.2155 44.8123 34.2155Z" fill="#424242"/>
<path d="M63.9651 44.2435V43.5283L65.7269 41.6912C65.9478 41.4603 66.1109 41.247 66.2163 41.0512C66.3217 40.8555 66.3744 40.6547 66.3744 40.4489C66.3744 40.1929 66.2941 39.9997 66.1335 39.8692C65.9729 39.7387 65.7395 39.6734 65.4333 39.6734C65.1873 39.6734 64.9514 39.7186 64.7256 39.8089C64.4997 39.8943 64.2788 40.0298 64.063 40.2155L63.7468 39.4927C63.9626 39.302 64.2286 39.1489 64.5449 39.0334C64.8661 38.918 65.2024 38.8603 65.5538 38.8603C66.126 38.8603 66.5652 38.9883 66.8713 39.2443C67.1775 39.5002 67.3306 39.8667 67.3306 40.3435C67.3306 40.6748 67.2528 40.991 67.0972 41.2921C66.9416 41.5883 66.7007 41.8995 66.3744 42.2257L64.9063 43.6939V43.4379H67.5414V44.2435H63.9651ZM70.3393 44.3188C69.6717 44.3188 69.1547 44.0879 68.7883 43.6261C68.4269 43.1644 68.2462 42.5169 68.2462 41.6837C68.2462 41.0813 68.3391 40.5719 68.5248 40.1553C68.7105 39.7336 68.974 39.4124 69.3153 39.1916C69.6617 38.9707 70.0758 38.8603 70.5576 38.8603C70.8437 38.8603 71.1273 38.913 71.4084 39.0184C71.6895 39.1188 71.9304 39.2643 72.1312 39.4551L71.8074 40.1779C71.6217 40.0072 71.421 39.8817 71.2051 39.8014C70.9893 39.7161 70.7709 39.6734 70.5501 39.6734C70.0984 39.6734 69.7545 39.8265 69.5186 40.1327C69.2827 40.4389 69.1648 40.8956 69.1648 41.503V42.0676H69.0744C69.1146 41.8117 69.1999 41.5933 69.3304 41.4126C69.4609 41.2269 69.629 41.0864 69.8348 40.991C70.0406 40.8906 70.269 40.8404 70.52 40.8404C70.8312 40.8404 71.1072 40.9132 71.3482 41.0587C71.5891 41.2043 71.7773 41.4051 71.9128 41.6611C72.0534 41.9171 72.1237 42.2107 72.1237 42.542C72.1237 42.8833 72.0459 43.1895 71.8903 43.4605C71.7397 43.7265 71.5314 43.9373 71.2654 44.0929C70.9993 44.2435 70.6906 44.3188 70.3393 44.3188ZM70.2866 43.5509C70.4723 43.5509 70.6354 43.5107 70.776 43.4304C70.9165 43.3501 71.0244 43.2371 71.0997 43.0916C71.18 42.941 71.2202 42.7703 71.2202 42.5796C71.2202 42.3839 71.18 42.2132 71.0997 42.0676C71.0244 41.9221 70.9165 41.8091 70.776 41.7288C70.6354 41.6435 70.4723 41.6008 70.2866 41.6008C70.1009 41.6008 69.9377 41.6435 69.7972 41.7288C69.6566 41.8091 69.5462 41.9221 69.4659 42.0676C69.3856 42.2132 69.3454 42.3839 69.3454 42.5796C69.3454 42.7703 69.3856 42.941 69.4659 43.0916C69.5462 43.2371 69.6566 43.3501 69.7972 43.4304C69.9377 43.5107 70.1009 43.5509 70.2866 43.5509ZM73.8373 41.1867C73.6115 41.1867 73.4082 41.1365 73.2275 41.0362C73.0518 40.9308 72.9113 40.7902 72.8059 40.6145C72.7055 40.4389 72.6553 40.2406 72.6553 40.0197C72.6553 39.7989 72.7055 39.6031 72.8059 39.4325C72.9113 39.2568 73.0518 39.1188 73.2275 39.0184C73.4082 38.913 73.6115 38.8603 73.8373 38.8603C74.0632 38.8603 74.264 38.9105 74.4397 39.0109C74.6153 39.1112 74.7534 39.2493 74.8538 39.4249C74.9592 39.6006 75.0119 39.7989 75.0119 40.0197C75.0119 40.2406 74.9592 40.4414 74.8538 40.6221C74.7534 40.7977 74.6153 40.9358 74.4397 41.0362C74.264 41.1365 74.0632 41.1867 73.8373 41.1867ZM73.8373 40.6522C74.013 40.6522 74.1561 40.5919 74.2665 40.4715C74.3769 40.351 74.4321 40.2004 74.4321 40.0197C74.4321 39.8441 74.3769 39.696 74.2665 39.5755C74.1561 39.4551 74.013 39.3948 73.8373 39.3948C73.6617 39.3948 73.5161 39.4551 73.4007 39.5755C73.2902 39.696 73.235 39.8441 73.235 40.0197C73.235 40.2004 73.2902 40.351 73.4007 40.4715C73.5161 40.5919 73.6617 40.6522 73.8373 40.6522ZM78.2429 44.3188C77.6908 44.3188 77.2164 44.2084 76.8199 43.9875C76.4284 43.7617 76.1272 43.4455 75.9164 43.0389C75.7056 42.6273 75.6002 42.1429 75.6002 41.5858C75.6002 41.0286 75.7056 40.5468 75.9164 40.1402C76.1272 39.7336 76.4284 39.4199 76.8199 39.1991C77.2164 38.9732 77.6908 38.8603 78.2429 38.8603C78.6143 38.8603 78.9481 38.913 79.2442 39.0184C79.5454 39.1238 79.8039 39.2794 80.0197 39.4852L79.7035 40.2531C79.4676 40.0624 79.2392 39.9269 79.0184 39.8466C78.8025 39.7612 78.5541 39.7186 78.273 39.7186C77.7359 39.7186 77.3243 39.8817 77.0382 40.208C76.7572 40.5292 76.6166 40.9885 76.6166 41.5858C76.6166 42.1831 76.7572 42.6449 77.0382 42.9711C77.3243 43.2974 77.7359 43.4605 78.273 43.4605C78.5541 43.4605 78.8025 43.4204 79.0184 43.34C79.2392 43.2547 79.4676 43.1142 79.7035 42.9184L80.0197 43.6864C79.8039 43.8872 79.5454 44.0428 79.2442 44.1532C78.9481 44.2636 78.6143 44.3188 78.2429 44.3188Z" fill="#424242"/>
<path d="M66.9956 32.1581C66.9956 31.7387 67.0712 31.3759 67.2223 31.0699C67.3773 30.7638 67.5983 30.5276 67.8855 30.3614C68.1726 30.1913 68.5146 30.1063 68.9114 30.1063C69.3043 30.1063 69.6444 30.1913 69.9316 30.3614C70.2187 30.5276 70.4398 30.7638 70.5947 31.0699C70.7534 31.3759 70.8327 31.7368 70.8327 32.1524C70.8327 32.5718 70.7534 32.9365 70.5947 33.2463C70.4398 33.5524 70.2187 33.7904 69.9316 33.9604C69.6444 34.1305 69.3043 34.2155 68.9114 34.2155C68.5146 34.2155 68.1726 34.1305 67.8855 33.9604C67.6021 33.7904 67.3829 33.5524 67.228 33.2463C67.0731 32.9365 66.9956 32.5737 66.9956 32.1581ZM67.7608 32.1581C67.7608 32.6077 67.8571 32.9591 68.0498 33.2123C68.2425 33.4655 68.5297 33.592 68.9114 33.592C69.2816 33.592 69.5669 33.4655 69.7672 33.2123C69.9675 32.9591 70.0676 32.6077 70.0676 32.1581C70.0676 31.7046 69.9675 31.3532 69.7672 31.1039C69.5707 30.8545 69.2854 30.7298 68.9114 30.7298C68.5297 30.7298 68.2425 30.8545 68.0498 31.1039C67.8571 31.3532 67.7608 31.7046 67.7608 32.1581ZM72.562 34.2155C72.2106 34.2155 71.948 34.1191 71.7742 33.9264C71.6004 33.7337 71.5135 33.439 71.5135 33.0423V31.2966H72.222V33.0366C72.222 33.2482 72.2654 33.405 72.3523 33.507C72.4392 33.6053 72.5715 33.6544 72.7491 33.6544C72.9493 33.6544 73.1118 33.5864 73.2365 33.4503C73.365 33.3143 73.4292 33.1348 73.4292 32.9119V31.2966H74.1377V34.1588H73.4462V33.575H73.5256C73.4424 33.7791 73.3159 33.9378 73.1458 34.0511C72.9796 34.1607 72.785 34.2155 72.562 34.2155ZM76.1311 34.2155C75.791 34.2155 75.5341 34.1267 75.3603 33.9491C75.1865 33.7715 75.0995 33.5051 75.0995 33.1499V31.8293H74.5498V31.2966H75.0995V30.5654L75.808 30.384V31.2966H76.5732V31.8293H75.808V33.1046C75.808 33.3011 75.8458 33.439 75.9214 33.5184C75.9969 33.5977 76.1009 33.6374 76.2331 33.6374C76.3049 33.6374 76.3654 33.6317 76.4145 33.6204C76.4674 33.609 76.5184 33.5939 76.5675 33.575V34.1361C76.5033 34.1626 76.4315 34.1815 76.3521 34.1928C76.2766 34.2079 76.2029 34.2155 76.1311 34.2155Z" fill="#424242"/>
<path d="M56.1762 9.84836C63.4621 9.79919 70.661 11.433 77.2119 14.6224C83.7629 17.8119 89.4889 22.4708 93.9439 28.2363C98.3988 34.0017 101.462 40.7179 102.896 47.8616C104.329 55.0053 104.094 62.3835 102.208 69.4213" stroke="#641A89" stroke-width="2.68894" stroke-linecap="round" stroke-linejoin="round"/>
<circle cx="101.401" cy="71.424" r="3.22673" fill="#641A89"/>
<path d="M9.02625 85.0031C12.6457 91.2722 17.4645 96.7669 23.2075 101.174C28.9505 105.58 35.5052 108.813 42.4975 110.686C49.4897 112.56 56.7825 113.038 63.9594 112.093C71.1364 111.148 78.057 108.799 84.326 105.18C90.5951 101.56 96.0899 96.7414 100.497 90.9984C104.903 85.2554 108.136 78.7007 110.009 71.7084C111.883 64.7162 112.361 57.4234 111.416 50.2464C110.471 43.0695 108.122 36.1489 104.503 29.8798C100.883 23.6108 96.0643 18.116 90.3213 13.7092C84.5783 9.30248 78.0236 6.07004 71.0314 4.19648C64.0391 2.32291 56.7463 1.84492 49.5694 2.78978C42.3924 3.73465 35.4718 6.08387 29.2028 9.70331C22.9337 13.3228 17.4389 18.1415 13.0322 23.8845C8.62542 29.6275 5.39298 36.1823 3.51941 43.1745C1.64585 50.1668 1.16786 57.4595 2.11272 64.6365C3.05759 71.8135 5.40681 78.7341 9.02625 85.0031L9.02625 85.0031Z" stroke="#641A89" stroke-width="1.61336" stroke-dasharray="0.81 7.53"/>
<defs>
<linearGradient id="paint0_linear_0_288" x1="56.2839" y1="54.307" x2="56.2839" y2="55.307" gradientUnits="userSpaceOnUse">
<stop stop-color="#F5F5F5"/>
<stop offset="1" stop-color="white"/>
</linearGradient>
<linearGradient id="paint1_linear_0_288" x1="56.2929" y1="37.1328" x2="55.2929" y2="37.1328" gradientUnits="userSpaceOnUse">
<stop stop-color="#F5F5F5"/>
<stop offset="1" stop-color="white"/>
</linearGradient>
</defs>
</svg>
