<svg width="70" height="70" viewBox="0 0 70 70" fill="none" xmlns="http://www.w3.org/2000/svg">
<circle opacity="0.05" cx="35" cy="35" r="35" fill="#641A89"/>
<path fill-rule="evenodd" clip-rule="evenodd" d="M51.735 40.0225C52.3578 41.3373 52.5394 42.8769 52.5048 43.2662C52.4875 43.4478 53.612 43.5689 54.7884 43.4738C55.3593 43.4219 55.9388 43.197 56.4059 42.8596C57.5823 42.012 57.4007 40.5588 57.3747 39.0883C57.3055 35.7322 57.1585 29.8243 56.8557 27.731C56.7779 27.1602 56.7865 26.9439 56.2243 26.745C55.7226 26.5547 55.1517 26.6066 55.1517 26.6066C55.2036 26.6066 55.2555 27.7137 55.1171 29.2621C55.0046 30.499 54.9354 31.6408 54.3732 32.5663C53.5515 33.907 51.8042 34.4001 50.351 34.6509C48.8719 34.9018 47.2544 34.9364 45.8704 34.9191C44.0193 34.8931 42.1596 34.8845 40.3085 34.8845C36.0182 34.8758 31.7279 34.9018 27.4375 34.8672C25.8114 34.8585 24.1938 34.8326 22.5763 34.7893C17.7238 34.6596 15.0423 34.5644 14.8952 29.5216C14.852 28.0511 14.8434 26.6066 14.8434 26.6066C14.8434 26.6066 14.2811 26.5547 13.7708 26.745C13.2085 26.9439 13.2172 27.1602 13.1393 27.731C12.8366 29.8243 12.6982 35.7322 12.629 39.0883C12.5944 40.5588 12.4214 42.012 13.5978 42.8596C14.0562 43.197 14.6444 43.4219 15.2066 43.4738C16.383 43.5689 17.5075 43.4478 17.4902 43.2662C17.4729 42.998 17.5594 42.1936 17.8103 41.2854C17.9227 40.8788 18.0697 40.4377 18.26 40.0225C18.3552 39.8062 18.8655 39.2959 19.5056 39.1489C20.6388 38.898 22.4639 38.8807 24.5398 38.898C31.5462 38.9586 38.717 39.0191 45.706 38.898C47.7388 38.8634 49.5552 38.8461 50.6624 39.0797C51.3457 39.2267 51.6312 39.7976 51.735 40.0225ZM21.5902 39.8927H48.3442C49.3044 39.8927 50.0915 40.6799 50.0915 41.6314C50.0915 42.5915 49.3044 43.3786 48.3442 43.3786H21.5902C20.6301 43.3786 19.843 42.5915 19.843 41.6314C19.843 40.6799 20.6301 39.8927 21.5902 39.8927ZM17.1442 26.6498H52.6519V29.66C52.6519 31.3986 51.2247 32.8172 49.486 32.8172H20.3101C18.5714 32.8172 17.1442 31.3986 17.1442 29.66V26.6498ZM19.2721 30.4817H50.9652V31.1131H19.2721V30.4817ZM19.2721 28.0078H50.9652V28.6393H19.2721V28.0078Z" fill="#641A89"/>
</svg>
