<svg width="70" height="70" viewBox="0 0 70 70" fill="none" xmlns="http://www.w3.org/2000/svg">
<circle opacity="0.05" cx="35" cy="35" r="35" fill="#641A89"/>
<path fill-rule="evenodd" clip-rule="evenodd" d="M16.829 36.1101C16.8842 37.1031 15.0361 37.7651 13.8224 36.8825C12.7466 36.0549 12.1949 33.931 12.9673 32.6345C13.7672 31.2553 16.8566 31.2829 18.291 31.3105C18.291 31.3105 19.4219 32.2759 19.7253 32.5242C19.2288 32.4414 18.7323 32.3863 18.2082 32.3863C16.1394 32.3311 14.0982 32.4966 13.7121 33.4896C13.1604 34.9516 14.1258 36.3032 14.7051 36.4687C14.5672 36.2756 14.4844 36.2204 14.4844 35.7515C14.512 35.2826 15.0637 34.5654 15.7257 34.593C16.3877 34.6206 16.8842 35.4481 16.8566 35.8343C16.8566 36.2204 16.8566 35.9998 16.829 36.1101ZM38.4272 30.9795C38.9789 31.2002 39.172 32.0829 38.8962 32.9104C38.6203 33.7655 37.9583 34.2344 37.4342 33.9861C36.9101 33.7379 36.717 32.8552 36.9929 32.0277C37.2687 31.2002 37.9031 30.7312 38.4272 30.9795ZM35.0068 28.69C34.5379 28.359 33.6828 28.6073 33.1035 29.2417C32.4967 29.9037 32.4139 30.7037 32.8829 31.0623C33.3518 31.3933 34.2069 31.145 34.7862 30.5106C35.3654 29.8486 35.4758 29.0486 35.0068 28.69ZM18.2634 30.6761V30.6485C18.0427 30.6485 17.7393 30.6485 17.4635 30.6761C18.0151 29.4624 18.7323 28.3314 19.5323 27.3108C20.0288 27.5867 20.608 27.697 21.1321 27.6694C21.4907 27.6418 21.8493 27.5591 22.1527 27.4212C22.2907 27.366 22.401 27.2833 22.5113 27.2281C21.8493 27.8901 21.2425 28.6349 20.6908 29.4348L44.2474 48.5229C44.3302 48.1919 44.4681 47.8884 44.6612 47.7505C45.6542 46.8954 46.2059 48.3298 46.2887 48.3298C46.4542 48.3574 45.2129 47.7505 44.9922 48.4953C44.9646 48.6332 44.937 48.8539 44.937 49.1021L44.9922 49.1297L44.9646 49.2125C45.0198 50.2606 45.5439 51.6398 46.6472 50.8123C46.9782 50.5365 47.3368 50.04 47.5575 49.2676C47.7782 48.4125 47.9437 47.4471 47.8609 46.6196C47.6403 44.4129 46.0404 42.7854 44.3026 42.5096C42.7027 42.2337 40.5512 42.7302 38.7031 43.3923L34.4 39.8891C34.7034 39.9167 35.0344 39.9443 35.3654 39.9443C39.6685 39.9167 40.7443 37.0755 40.7443 37.0755C39.1168 37.9858 36.9101 37.1583 35.1999 36.8273L34.5655 38.0134L33.5449 37.6272L34.069 36.1653L32.3312 35.1447L31.2554 36.3308L30.4831 35.8067C30.4555 35.7791 31.3933 34.6482 31.4209 34.4827C31.5037 34.1516 29.628 31.807 28.3867 30.9795C28.1109 30.814 27.9729 33.0759 28.828 35.3653L22.7044 30.4002C27.3937 28.0556 26.7317 21.8216 22.4286 21.9871C21.9045 22.0147 21.1597 22.2078 20.5253 22.4837C18.3737 23.4491 19.2564 25.8489 20.5253 26.2075C20.3874 26.0144 20.3046 25.9592 20.3046 25.4903C20.3322 25.0214 20.8839 24.3318 21.5459 24.3318C22.1803 24.3594 22.6768 25.2145 22.6768 25.5731C22.6768 25.9592 22.6492 25.7661 22.6492 25.8489C22.7044 26.8695 20.8287 27.5039 19.6426 26.6212C16.6911 24.4145 18.7047 21.1872 22.401 20.7183C24.6077 20.4424 26.9799 21.8768 29.2694 22.2906C35.7516 23.4767 34.3172 13.9051 32.6622 13.5189C31.1451 13.1327 30.1245 14.1533 29.959 14.7326C30.1521 14.5947 30.2072 14.5119 30.6762 14.5119C31.1175 14.5395 31.8347 15.0912 31.8071 15.7532C31.7519 18.0978 27.5868 16.6083 29.5452 13.8499C30.3452 12.7465 32.4967 12.1673 33.7931 12.912C36.6619 14.5671 33.0484 22.9526 36.8274 24.3318C41.9304 26.2075 42.6476 16.4979 46.0128 16.2773C47.5023 16.1945 49.185 17.7116 49.4056 19.0357C49.6539 20.5252 48.2195 21.9044 47.3644 21.4079C47.2817 21.3803 47.1989 21.3527 47.1162 21.2975C46.5093 21.0217 46.2611 20.3045 46.5369 19.7253C46.8127 19.1184 47.5299 18.8426 48.1092 19.146C48.3574 19.2563 48.5229 19.4218 48.6609 19.6425C48.7712 19.0633 48.2747 17.6841 46.7852 17.3255C44.275 16.7462 42.1235 22.2078 42.3442 25.4627C42.5097 27.8901 46.0128 28.9935 47.8609 27.5591C49.6815 26.1523 52.3295 24.6076 53.5432 25.2145C54.6742 25.7937 55.1707 27.5039 54.7569 28.5797C54.288 29.7934 52.6605 30.2071 52.2192 29.4348C52.164 29.3796 52.1364 29.3245 52.0813 29.2693C51.7503 28.8004 51.8882 28.1659 52.3295 27.8349C52.7985 27.5039 53.4329 27.6143 53.7639 28.0832C53.8742 28.2763 53.9294 28.4969 53.9294 28.7176C54.5914 27.9453 54.2328 25.7661 52.5226 26.042C49.4332 26.4833 41.6821 31.5312 52.2192 35.1998C53.1295 35.5308 55.8327 36.5239 56.8533 36.0274C57.8187 35.5584 57.6532 34.6757 57.3222 34.4827C57.3222 34.593 57.3498 34.6482 57.1291 34.8137C56.9085 34.9792 56.274 34.9792 55.8051 34.8137C55.0327 34.5378 55.5844 33.9861 56.0809 33.7931C57.5981 33.1586 59.8599 35.7791 56.743 36.579C55.0052 37.0204 51.5848 36.4687 49.185 36.8273C46.9231 37.1859 45.5991 38.4547 46.1783 39.9167C47.9437 44.3025 50.509 46.6472 48.4954 50.702C47.9161 51.8881 46.7852 52.4122 45.3784 51.8329C44.8819 51.6398 44.5509 51.1985 44.3578 50.702L43.9992 51.5571L18.2634 30.6761ZM35.2827 45.13C35.1999 45.2128 35.1448 45.268 35.0896 45.3231C33.1863 47.9436 34.7586 53.7362 37.379 55.6947C31.2554 56.4394 31.614 49.1021 31.3106 44.0267C28.0281 43.6957 28.6074 53.6811 30.0693 56.0809C26.0696 56.2739 26.4558 46.8127 27.1178 43.806C27.1178 43.806 26.1248 44.0819 24.7456 45.8472C23.3664 47.6402 24.2767 52.4398 24.2767 52.4398C24.2767 52.4398 23.6423 51.9433 22.9251 50.8675C21.3252 48.5229 22.8975 44.2474 24.7456 42.8406C26.2627 41.6821 26.7592 39.7236 26.2351 37.8203L35.2827 45.13ZM38.9789 28.9107C40.0271 29.4072 40.4133 31.145 39.8616 32.7725C39.3375 34.4275 38.0411 35.3653 36.9929 34.8688C35.9723 34.3999 35.5585 32.6621 36.1102 31.0071C36.6619 29.3796 37.9307 28.4142 38.9789 28.9107ZM36.3309 27.366C35.4206 26.6764 33.7104 27.1729 32.5519 28.4418C31.4209 29.7382 31.2278 31.3381 32.1657 32.0277C33.1035 32.6897 34.7862 32.1932 35.9447 30.9243C37.1032 29.6279 37.2687 28.028 36.3309 27.366ZM35.5861 20.3045C37.4894 20.47 39.3099 20.9114 41.0201 21.6286C40.5512 22.3457 40.0547 22.9802 39.503 23.3939C38.3721 22.9802 37.1584 22.6767 35.9171 22.5388C35.6688 21.932 35.5861 21.132 35.5861 20.3045ZM43.2268 22.7595C45.0198 23.8077 46.5921 25.1593 47.9161 26.7316C47.7506 26.8419 47.6127 26.9522 47.4748 27.0626C47.0886 27.366 46.5921 27.5315 46.068 27.5591C45.9576 27.5591 45.8473 27.5591 45.7646 27.5591C44.9095 26.6764 43.9716 25.8765 42.9786 25.1869C42.951 24.4421 43.0338 23.6146 43.2268 22.7595ZM49.1022 28.3039C50.3435 30.1244 51.2813 32.1656 51.8054 34.3723C50.6745 33.931 49.7918 33.4896 49.1298 33.0483C48.7436 32.0001 48.2471 30.9795 47.6403 30.0416C47.8334 29.6279 48.1368 29.2141 48.5229 28.828C48.6884 28.6349 48.9091 28.4694 49.1022 28.3039ZM52.2744 37.3514C52.3019 37.8203 52.3295 38.3168 52.3295 38.7857C52.3295 42.1786 51.4193 45.3507 49.8746 48.0815C49.9297 46.8678 49.5987 45.7645 49.1022 44.6059C49.7918 42.813 50.1504 40.8545 50.1504 38.7857C50.1504 38.3168 50.1228 37.8479 50.0952 37.379C50.7848 37.3238 51.5296 37.3238 52.2744 37.3514ZM46.1507 52.688C42.8958 55.6119 38.6479 57.3773 33.9586 57.3773C23.8354 57.3773 15.6153 49.047 15.6153 38.7857C15.6153 38.4823 15.6153 38.1789 15.6153 37.8755C15.8912 37.8479 16.1394 37.7651 16.3601 37.6548C16.6911 37.5169 16.967 37.2962 17.16 37.0204C17.2428 36.9376 17.298 36.8273 17.3255 36.717C17.4359 36.579 17.4911 36.3032 17.4911 35.8618C17.5186 35.5033 17.2704 34.9516 16.9118 34.5378C16.7187 34.3447 16.498 34.1516 16.2222 34.0413C16.3049 33.7103 16.3877 33.3793 16.498 33.0483C17.0221 32.9931 17.6014 32.9931 18.1806 33.0207C18.4013 33.0207 18.5944 33.0483 18.7875 33.0483C18.1255 34.8412 17.7669 36.7721 17.7669 38.7857C17.7669 42.8957 19.2564 46.6472 21.7114 49.5159C21.8493 50.1227 22.07 50.7296 22.401 51.2261C23.1733 52.3846 23.8905 52.9363 23.8905 52.9363L25.2145 53.9569L24.9111 52.357C25.4628 52.7432 26.0421 53.1018 26.6489 53.4052C26.7041 53.6259 26.7868 53.819 26.842 54.0396C27.3385 55.3913 28.1384 56.3843 29.3245 56.6601C29.5728 56.7153 29.8211 56.7153 30.0969 56.7153L31.1451 56.6601L30.5934 55.7498C30.4555 55.5016 30.29 55.143 30.1796 54.7292C31.1451 54.9499 32.1381 55.0878 33.1311 55.143C34.0966 56.0809 35.4758 56.5774 37.4342 56.3291L39.0065 56.136L37.7376 55.1706C37.5997 55.0602 37.4618 54.9499 37.3239 54.812C39.834 54.2879 42.1511 53.157 44.0819 51.5571C44.1371 51.6398 44.1923 51.695 44.2199 51.7502C44.4681 52.0536 44.7715 52.2743 45.1301 52.4398C45.4887 52.5777 45.8197 52.6604 46.1507 52.688ZM22.6217 24.1939C23.1182 23.7801 23.6423 23.4215 24.1664 23.0905C24.5525 23.3388 24.856 23.7249 25.0215 24.1387C25.1594 24.4145 25.2421 24.6904 25.2697 24.9662C24.4698 25.4903 23.6974 26.0971 22.9802 26.7592C23.063 26.6764 23.1182 26.5661 23.1458 26.4557C23.2285 26.3178 23.2837 26.0696 23.3113 25.6006C23.3113 25.242 23.0906 24.6904 22.732 24.3042C22.7044 24.249 22.6492 24.2214 22.6217 24.1939ZM27.8626 21.27C29.4349 20.7183 31.1175 20.3597 32.8829 20.2494C32.8277 20.3321 32.8001 20.4149 32.745 20.4976C32.1657 21.4355 31.1175 21.9871 29.3797 21.6561C28.8832 21.5734 28.3867 21.4355 27.8626 21.27ZM47.1162 48.3298C46.7024 48.9366 46.2335 49.4883 45.7646 50.0124C45.8197 50.1503 45.8749 50.2882 45.9301 50.371C45.9852 50.3986 45.9852 50.4262 46.0128 50.4262C46.068 50.4262 46.1507 50.371 46.2611 50.2882C46.3714 50.2055 46.5093 50.0676 46.6197 49.8745C46.73 49.6538 46.8403 49.4055 46.9231 49.1021C47.0058 48.8539 47.061 48.6056 47.1162 48.3298Z" fill="#641A89"/>
</svg>
