<svg width="70" height="70" viewBox="0 0 70 70" fill="none" xmlns="http://www.w3.org/2000/svg">
<circle opacity="0.05" cx="35" cy="35" r="35" fill="#641A89"/>
<path fill-rule="evenodd" clip-rule="evenodd" d="M51.0159 45.227C50.9331 47.4628 48.1176 51.1893 46.8754 53.0111L45.302 52.597C48.366 50.1128 48.78 47.9597 51.0159 45.227ZM57.061 38.4366V45.3098L56.8126 46.8004C56.5641 48.0425 56.2329 48.8706 55.4876 49.7815C54.4939 51.0237 53.7486 51.1065 53.3346 51.6033C52.9205 52.1002 52.4237 54.7501 52.0924 57.4H45.5505C45.6333 56.3235 45.7161 55.0813 45.8817 53.922C44.3083 52.183 41.3272 51.1893 43.3146 48.2909C44.5567 46.4691 46.3786 45.1442 46.9582 42.5771L42.9834 39.5131C41.9068 40.8381 38.7601 45.8895 38.6773 46.966C40.0022 48.5394 42.0725 48.7878 42.1553 51.0237L37.2695 47.38C37.4351 45.8067 37.932 46.2207 38.1804 44.8129L36.193 45.1442L36.5242 43.3224C35.4477 44.6473 35.4477 45.227 33.5431 45.227C27.7464 45.3098 24.434 42.163 23.4403 41.8318C23.4403 50.1128 23.3575 45.3098 24.5996 51.0237C25.0137 52.8455 25.3449 55.0813 25.5933 57.4H19.1342C18.9686 55.4954 18.4717 53.5079 17.8092 51.4377C14.5797 49.9471 14.0828 47.38 14 43.7364V43.4052V42.9911V42.5771C14.0828 22.7028 23.3575 23.6137 24.8481 28.5823C25.5105 30.7353 24.7652 32.4743 24.8481 34.4617L24.1028 34.7102C24.5168 36.8632 26.5042 38.4366 28.3261 39.3475C31.1416 40.6725 32.7978 40.01 35.5305 40.6725C36.8554 39.7616 38.9257 39.8444 41.0787 38.271C46.3786 34.1305 45.5505 21.7091 52.3408 26.4292C55.1564 28.4166 56.5641 33.5508 57.061 38.4366ZM51.3471 44.4817L51.0159 45.227L51.3471 44.4817ZM51.6784 43.7364L51.3471 44.4817L51.6784 43.7364ZM52.0096 42.9911L51.6784 43.7364L52.0096 42.9911ZM36.5242 43.3224L36.6898 42.5771L36.5242 43.3224ZM52.3408 41.8318L52.0096 42.9911L52.3408 41.8318ZM36.193 41.5006L36.5242 42.163L36.193 41.5006ZM52.3408 41.8318C52.5893 40.0928 52.8377 40.9209 52.3408 41.8318V41.8318ZM23.4403 41.8318L23.1091 41.5006L23.4403 41.8318ZM36.193 41.5006L35.8617 41.0865L36.193 41.5006ZM23.1091 41.5006L22.7778 41.0865L23.1091 41.5006ZM35.8617 41.0865L35.5305 40.6725L35.8617 41.0865ZM22.7778 41.0865L22.4466 40.6725L22.7778 41.0865ZM46.9582 42.5771L47.2066 41.5834L45.8817 40.424C46.2129 39.3475 45.8817 40.0928 46.3786 39.2647C46.7926 38.6022 46.7926 38.685 46.9582 38.4366L47.7035 40.5896C48.0347 41.5006 47.6207 42.0802 46.9582 42.5771ZM22.4466 40.6725L22.1153 40.3412L22.4466 40.6725ZM22.1153 40.3412L21.7013 39.9272L22.1153 40.3412ZM21.7013 39.9272L21.3701 39.5959L21.7013 39.9272ZM21.3701 39.5959L21.0388 39.1819L21.3701 39.5959ZM20.7076 38.4366L21.0388 39.1819L20.7076 38.4366ZM20.7076 38.4366L20.3763 38.1054L20.7076 38.4366ZM20.0451 37.3601L20.3763 38.1054L20.0451 37.3601ZM19.7139 36.6148L20.0451 37.3601L19.7139 36.6148ZM19.3826 35.8695L19.7139 36.6148L19.3826 35.8695ZM23.7715 33.9649L24.1028 34.7102L23.7715 33.9649Z" fill="#641A89"/>
<path fill-rule="evenodd" clip-rule="evenodd" d="M42.9005 13.014C42.4037 13.1797 40.9959 12.9312 39.5881 15.5811C36.9382 20.3013 40.4991 26.512 45.8817 25.3527C52.258 23.9449 51.4299 13.5109 45.7161 12.6H44.0599C42.9833 12.7656 43.2318 12.9312 42.9005 13.014Z" fill="#641A89"/>
<path fill-rule="evenodd" clip-rule="evenodd" d="M24.6824 13.014C20.956 14.2562 20.0451 18.2311 21.0388 21.295C23.5231 29.1619 34.3712 24.9386 32.1353 17.1545C31.7213 15.664 30.8103 14.2562 29.651 13.5109C29.0713 13.014 28.0776 12.6828 27.2495 12.6H25.8418C24.8481 12.7656 25.0137 12.9312 24.6824 13.014Z" fill="#641A89"/>
<path fill-rule="evenodd" clip-rule="evenodd" d="M42.2381 48.2081C43.6458 47.7941 45.302 44.9786 45.6333 43.3224C44.8052 43.7364 44.3911 44.3989 43.8115 45.3926C43.2318 46.3035 42.7349 47.2144 42.2381 48.2081Z" fill="#641A89"/>
<path fill-rule="evenodd" clip-rule="evenodd" d="M40.9959 47.0488L43.9771 42.2458C42.6521 42.6599 42.5693 43.1567 41.824 44.3989C41.0787 45.641 40.4163 45.9723 40.9959 47.0488Z" fill="#641A89"/>
</svg>
