<svg width="70" height="70" viewBox="0 0 70 70" fill="none" xmlns="http://www.w3.org/2000/svg">
<circle opacity="0.05" cx="35" cy="35" r="35" fill="#641A89"/>
<path fill-rule="evenodd" clip-rule="evenodd" d="M19.0925 14H48.2825C48.9125 14 49.4375 14.525 49.4375 15.2075V15.5225H17.9375V15.2075C17.9375 14.525 18.4625 14 19.0925 14ZM43.1375 38.465H45.815H45.92V38.57V39.6725V39.7775H45.815H43.1375H43.085V39.6725V38.57V38.465H43.1375ZM45.7625 38.6225H43.2425V39.5675H45.7625V38.6225ZM32.795 32.69V32.27H32.585V32.69H32.795ZM32.795 32.1125V31.6925H32.585V32.1125H32.795ZM32.795 31.535V31.1675H32.585V31.535H32.795ZM32.795 31.01V30.59H32.585V31.01H32.795ZM32.795 30.4325V30.0125H32.585V30.4325H32.795ZM32.795 29.855V29.435H32.585V29.855H32.795ZM32.795 21.875V21.455H32.585V21.875H32.795ZM32.795 21.2975V20.8775H32.585V21.2975H32.795ZM32.795 20.72V20.3H32.585V20.72H32.795ZM32.795 20.1425V19.7225H32.585V20.1425H32.795ZM32.795 19.565V19.145H32.585V19.565H32.795ZM32.795 18.9875V18.5675H32.585V18.9875H32.795ZM32.4275 32.69V32.27H29.0675V32.69H32.4275ZM32.4275 18.9875V18.5675H29.0675V18.9875H32.4275ZM28.91 32.69V32.27H28.7V32.69H28.91ZM28.91 26.4425V26.0225H28.7V26.4425H28.91ZM28.91 25.865V25.445H28.7V25.865H28.91ZM28.91 18.9875V18.5675H28.7V18.9875H28.91ZM28.5425 25.865V25.445H25.235V25.865H28.5425ZM25.0775 32.69V32.27H24.92V32.69H25.0775ZM25.0775 25.865V25.445H24.92V25.865H25.0775ZM25.0775 25.2875V24.8675H24.92V25.2875H25.0775ZM25.0775 24.71V24.29H24.92V24.71H25.0775ZM25.0775 18.9875V18.5675H24.92V18.9875H25.0775ZM24.7625 32.69V32.27H21.4025V32.69H24.7625ZM24.7625 18.9875V18.5675H21.4025V18.9875H24.7625ZM21.245 32.69V32.27H21.035V32.69H21.245ZM21.245 32.1125V31.6925H21.035V32.1125H21.245ZM21.245 31.535V31.1675H21.035V31.535H21.245ZM21.245 31.01V30.59H21.035V31.01H21.245ZM21.245 30.4325V30.0125H21.035V30.4325H21.245ZM21.245 29.855V29.435H21.035V29.855H21.245ZM21.245 29.2775V28.8575H21.035V29.2775H21.245ZM21.245 22.4V22.0325H21.035V22.4H21.245ZM21.245 21.875V21.455H21.035V21.875H21.245ZM21.245 21.2975V20.8775H21.035V21.2975H21.245ZM21.245 20.72V20.3H21.035V20.72H21.245ZM21.245 20.1425V19.7225H21.035V20.1425H21.245ZM21.245 19.565V19.145H21.035V19.565H21.245ZM21.245 18.9875V18.5675H21.035V18.9875H21.245ZM32.795 35.7875H32.585V36.2075H32.795V35.7875ZM32.795 36.365H32.585V36.785H32.795V36.365ZM32.795 36.9425H32.585V37.3625H32.795V36.9425ZM32.795 37.52H32.585V37.8875H32.795V37.52ZM32.795 38.0975H32.585V38.465H32.795V38.0975ZM32.795 38.6225H32.585V39.0425H32.795V38.6225ZM32.795 47.2325H32.585V47.6H32.795V47.2325ZM32.795 47.7575H32.585V48.1775H32.795V47.7575ZM32.795 48.335H32.585V48.755H32.795V48.335ZM32.795 48.9125H32.585V49.3325H32.795V48.9125ZM32.795 49.49H32.585V49.91H32.795V49.49ZM32.4275 35.7875H29.0675V36.2075H32.4275V35.7875ZM32.4275 49.49H29.0675V49.91H32.4275V49.49ZM28.91 35.7875H28.7V36.2075H28.91V35.7875ZM28.91 42.665H28.7V43.0325H28.91V42.665ZM28.91 43.19H28.7V43.61H28.91V43.19ZM28.5425 35.7875H25.235V36.2075H28.5425V35.7875ZM28.5425 42.665H25.235V43.0325H28.5425V42.665ZM25.0775 35.7875H24.92V36.2075H25.0775V35.7875ZM25.0775 41.51H24.92V41.93H25.0775V41.51ZM25.0775 42.0875H24.92V42.455H25.0775V42.0875ZM25.0775 42.665H24.92V43.0325H25.0775V42.665ZM25.0775 49.49H24.92V49.91H25.0775V49.49ZM24.7625 35.7875H21.4025V36.2075H24.7625V35.7875ZM24.7625 49.49H21.4025V49.91H24.7625V49.49ZM21.245 35.7875H21.035V36.2075H21.245V35.7875ZM21.245 36.365H21.035V36.785H21.245V36.365ZM21.245 36.9425H21.035V37.3625H21.245V36.9425ZM21.245 37.52H21.035V37.8875H21.245V37.52ZM21.245 38.0975H21.035V38.465H21.245V38.0975ZM21.245 38.6225H21.035V39.0425H21.245V38.6225ZM21.245 39.2H21.035V39.62H21.245V39.2ZM21.245 39.7775H21.035V40.1975H21.245V39.7775ZM21.245 46.0775H21.035V46.4975H21.245V46.0775ZM21.245 46.655H21.035V47.075H21.245V46.655ZM21.245 47.2325H21.035V47.6H21.245V47.2325ZM21.245 47.7575H21.035V48.1775H21.245V47.7575ZM21.245 48.335H21.035V48.755H21.245V48.335ZM21.245 48.9125H21.035V49.3325H21.245V48.9125ZM21.245 49.49H21.035V49.91H21.245V49.49ZM22.085 54.8975H24.395V55.3175H22.085V54.8975ZM22.5575 55.58H23.9225V56H22.5575V55.58ZM42.98 54.8975H45.3425V55.3175H42.98V54.8975ZM43.4525 55.58H44.87V56H43.4525V55.58ZM49.7 27.65L50.9075 30.8525C50.9075 30.8525 50.8025 47.18 50.8025 47.495C50.8025 47.8625 50.96 48.44 50.54 49.07C50.12 49.7525 49.805 50.12 49.805 50.12C49.805 50.12 49.805 27.65 49.7 27.65ZM28.385 36.365C28.4375 36.365 28.49 36.365 28.5425 36.4175V36.365H28.385ZM28.7 36.4175C28.7525 36.47 28.8575 36.47 28.91 36.47V36.365H28.7V36.4175ZM29.0675 36.5225C29.2775 36.6275 29.4875 36.68 29.6975 36.785H32.4275V36.365H29.0675V36.5225ZM30.0125 36.9425C30.275 37.0475 30.485 37.205 30.7475 37.3625H32.4275V36.9425H30.0125ZM30.9575 37.52C31.115 37.625 31.2725 37.7825 31.43 37.8875H32.4275V37.52H30.9575ZM31.64 38.0975C31.745 38.2025 31.9025 38.36 32.0075 38.465H32.4275V38.0975H31.64ZM32.165 38.6225C32.27 38.78 32.3225 38.885 32.4275 39.0425V38.6225H32.165ZM32.585 39.2525C32.69 39.3575 32.7425 39.515 32.795 39.62V39.2H32.585V39.2525ZM32.9525 39.8825C33.005 39.9875 33.0575 40.0925 33.11 40.1975H34.475V39.7775H32.9525V39.8825ZM33.1625 40.355C33.215 40.5125 33.2675 40.6175 33.32 40.775H34.475V40.355H33.1625ZM33.3725 40.9325C33.425 41.0375 33.425 41.195 33.4775 41.3525H34.475V40.9325H33.3725ZM33.53 41.51C33.53 41.615 33.5825 41.7725 33.5825 41.93H34.475V41.51H33.53ZM33.5825 42.0875C33.635 42.1925 33.635 42.35 33.635 42.455H34.475V42.0875H33.5825ZM33.635 42.665C33.6875 42.77 33.6875 42.875 33.6875 42.98V43.0325H34.475V42.665H33.635ZM33.635 43.19C33.635 43.3475 33.635 43.505 33.635 43.61H34.475V43.19H33.635ZM33.635 43.7675C33.5825 43.925 33.5825 44.0825 33.5825 44.1875H34.475V43.7675H33.635ZM33.53 44.345C33.4775 44.5025 33.4775 44.6075 33.425 44.765H34.475V44.345H33.53ZM33.3725 44.9225C33.32 45.08 33.32 45.185 33.2675 45.3425H34.475V44.9225H33.3725ZM33.215 45.5C33.11 45.6575 33.0575 45.7625 33.005 45.92H34.475V45.5H33.215ZM32.795 46.34C32.795 46.3925 32.7425 46.445 32.69 46.4975H32.795V46.34ZM32.6375 46.655H32.585V47.075H32.795V46.655H32.6375ZM32.4275 46.9175C32.4275 46.97 32.375 47.0225 32.3225 47.075H32.4275V46.9175ZM32.2175 47.2325C32.1125 47.3375 32.0075 47.495 31.85 47.6H32.4275V47.2325H32.2175ZM31.6925 47.7575C31.5875 47.915 31.43 48.0725 31.2725 48.1775H32.4275V47.7575H31.6925ZM31.0625 48.335C30.8525 48.4925 30.695 48.65 30.485 48.755H32.4275V48.335H31.0625ZM30.2225 48.9125C29.9075 49.07 29.5925 49.2275 29.2775 49.3325H32.4275V48.9125H30.2225ZM28.7525 49.49H28.7V49.91H28.91V49.49H28.7525ZM28.5425 49.5425C28.1225 49.6475 27.65 49.7 27.1775 49.7C26.6 49.7 26.075 49.6475 25.55 49.49H25.235V49.91H28.5425V49.5425ZM25.025 49.3325C24.9725 49.3325 24.9725 49.28 24.92 49.28V49.3325H25.025ZM24.7625 49.2275C24.5525 49.1225 24.3425 49.0175 24.1325 48.9125H21.4025V49.3325H24.7625V49.2275ZM23.87 48.755C23.66 48.65 23.45 48.4925 23.24 48.335H21.4025V48.755H23.87ZM23.0825 48.1775C22.925 48.0725 22.7675 47.915 22.61 47.7575H21.4025V48.1775H23.0825ZM22.4525 47.6C22.3475 47.495 22.2425 47.3375 22.1375 47.2325H21.4025V47.6H22.4525ZM21.98 47.075C21.875 46.9175 21.8225 46.76 21.7175 46.655H21.4025V47.075H21.98ZM21.6125 46.4975C21.56 46.34 21.455 46.1825 21.4025 46.0775V46.4975H21.6125ZM21.245 45.71C21.1925 45.6575 21.1925 45.5525 21.14 45.5H21.035V45.92H21.245V45.71ZM21.0875 45.3425C21.0875 45.29 21.035 45.2375 21.035 45.185V45.3425H21.0875ZM20.8775 44.66C20.825 44.555 20.825 44.45 20.825 44.345H19.8275V44.765H20.8775V44.66ZM20.7725 44.1875C20.7725 44.0825 20.72 43.925 20.72 43.7675H19.8275V44.1875H20.7725ZM20.72 43.61C20.6675 43.505 20.6675 43.3475 20.6675 43.19H19.8275V43.61H20.72ZM20.6675 43.0325V42.98C20.6675 42.875 20.6675 42.77 20.6675 42.665H19.8275V43.0325H20.6675ZM20.6675 42.455C20.6675 42.35 20.72 42.1925 20.72 42.0875H19.8275V42.455H20.6675ZM20.72 41.93C20.7725 41.7725 20.7725 41.615 20.825 41.51H19.8275V41.93H20.72ZM20.8775 41.3525C20.8775 41.3 20.8775 41.3 20.8775 41.2475V40.9325H19.8275V41.3525H20.8775ZM21.035 40.7225C21.0875 40.6175 21.14 40.46 21.1925 40.355H21.035V40.7225ZM21.4025 39.8825L21.455 39.7775H21.4025V39.8825ZM21.5075 39.62C21.6125 39.4625 21.665 39.3575 21.77 39.2H21.4025V39.62H21.5075ZM21.875 39.0425C21.98 38.9375 22.085 38.78 22.19 38.6225H21.4025V39.0425H21.875ZM22.295 38.465C22.4525 38.36 22.5575 38.2025 22.715 38.0975H21.4025V38.465H22.295ZM22.8725 37.8875C23.03 37.7825 23.1875 37.625 23.3975 37.52H21.4025V37.8875H22.8725ZM23.6075 37.3625C23.8175 37.205 24.08 37.0475 24.29 36.9425H21.4025V37.3625H23.6075ZM24.605 36.785C24.6575 36.7325 24.71 36.7325 24.7625 36.7325V36.365H21.4025V36.785H24.605ZM24.92 36.68C24.9725 36.6275 25.025 36.6275 25.0775 36.575V36.365H24.92V36.68ZM25.235 36.5225C25.4975 36.47 25.7075 36.4175 25.97 36.365H25.235V36.5225ZM23.24 39.62C23.345 39.515 23.5025 39.305 23.555 39.2525C23.555 39.2525 23.555 39.2525 23.6075 39.2H23.7125C23.66 39.2525 23.6075 39.305 23.555 39.3575L23.345 39.62H23.24ZM23.765 39.0425C23.9225 38.885 24.1325 38.78 24.3425 38.6225H24.5L24.4475 38.675C24.2375 38.78 24.0275 38.885 23.87 39.0425H23.765ZM24.6575 38.465H24.71H24.7625H24.6575ZM24.92 38.36C24.9725 38.36 24.9725 38.4125 24.9725 38.4125C24.9725 38.465 25.025 38.4125 24.92 38.465V38.36ZM28.805 47.39C28.8575 47.39 28.8575 47.3375 28.91 47.3375V47.39C28.91 47.4425 28.8575 47.4425 28.8575 47.4425C28.805 47.4425 28.8575 47.4425 28.805 47.39ZM29.0675 47.285C29.0675 47.2325 29.12 47.2325 29.12 47.2325H29.1725H29.33C29.225 47.285 29.12 47.285 29.0675 47.3375V47.285ZM29.435 47.075C29.645 46.9175 29.8025 46.8125 29.96 46.655H30.065C30.065 46.7075 29.96 46.76 29.9075 46.8125C29.855 46.865 29.75 46.97 29.5925 47.075H29.435ZM30.17 46.4975C30.275 46.34 30.38 46.235 30.485 46.0775H30.5375C30.485 46.1825 30.38 46.34 30.3275 46.34C30.3275 46.3925 30.275 46.445 30.2225 46.4975H30.17ZM30.59 45.92C30.59 45.8675 30.59 45.815 30.6425 45.815C30.6425 45.8675 30.6425 45.8675 30.6425 45.92H30.59ZM30.38 41.0375C30.38 40.985 30.3275 40.985 30.3275 40.9325H30.4325H30.485H31.325C31.3775 40.985 31.3775 41.0375 31.3775 41.0375C31.43 41.09 31.4825 41.1425 31.535 41.195L31.6925 41.3525H30.17C30.275 41.2475 30.3275 41.09 30.38 41.0375ZM30.2225 40.775C30.1175 40.67 30.065 40.565 30.0125 40.565C29.96 40.5125 29.9075 40.4075 29.855 40.355H29.96C30.065 40.46 30.17 40.6175 30.275 40.7225V40.775H30.2225ZM29.645 40.1975V40.145C29.645 40.0925 29.6975 40.145 29.8025 40.1975H29.645ZM31.22 40.775C31.115 40.6175 31.0625 40.46 30.9575 40.355H31.0625C31.115 40.4075 31.1675 40.5125 31.22 40.6175C31.22 40.6175 31.22 40.7225 31.2725 40.775H31.22ZM30.8525 40.1975C30.695 39.935 30.6425 39.935 30.485 39.7775H30.59C30.6425 39.83 30.695 39.8825 30.695 39.8825C30.8 39.9875 30.8525 40.0925 30.9575 40.1975H30.8525ZM30.3275 39.62C30.3275 39.62 30.3275 39.62 30.3275 39.5675C30.38 39.5675 30.38 39.5675 30.4325 39.62H30.3275ZM31.7975 41.51C31.9025 41.615 31.955 41.7725 32.0075 41.93H29.54C29.6975 41.825 29.855 41.6675 30.0125 41.51H30.065H31.7975ZM32.1125 42.0875C32.165 42.1925 32.2175 42.35 32.2175 42.455H29.0675V42.14C29.12 42.0875 29.1725 42.0875 29.225 42.0875H32.1125ZM32.2175 42.665C32.27 42.77 32.27 42.9275 32.2175 43.0325H29.0675V42.665H32.2175ZM32.165 43.19C32.165 43.295 32.1125 43.4 32.06 43.505C32.06 43.5575 32.06 43.5575 32.0075 43.61H29.0675V43.19H32.165ZM31.9025 43.7675C31.745 43.9775 31.535 44.0825 31.325 44.1875H29.12H29.0675V43.7675H31.9025ZM30.59 44.345C30.4325 44.345 30.2225 44.345 30.0125 44.345H30.59ZM28.91 44.135C28.8575 44.0825 28.7525 44.0825 28.7 44.03V43.7675H28.91V44.135ZM28.5425 43.9775C28.49 43.925 28.4375 43.925 28.385 43.8725C28.28 43.8725 28.2275 43.82 28.2275 43.7675H28.5425V43.9775ZM27.9125 43.7675C27.8075 43.8725 27.7025 43.925 27.545 44.03C27.545 44.0825 27.545 44.135 27.545 44.1875H25.97C26.0225 44.0825 26.075 43.9775 26.18 43.7675H27.9125ZM27.545 44.345C27.5975 44.5025 27.5975 44.66 27.65 44.765H25.7075C25.76 44.7125 25.76 44.66 25.76 44.66C25.8125 44.5025 25.865 44.45 25.865 44.345H27.545ZM27.7025 44.9225C27.755 45.08 27.8075 45.2375 27.86 45.3425H25.6025C25.6025 45.185 25.655 45.08 25.7075 44.9225H27.7025ZM27.965 45.5C28.07 45.6575 28.175 45.815 28.3325 45.92H25.4975C25.4975 45.7625 25.55 45.605 25.55 45.5H27.965ZM28.49 46.0775L28.5425 46.13V46.4975H25.4975C25.4975 46.34 25.4975 46.1825 25.4975 46.0775H28.49ZM28.7 46.235C28.7525 46.2875 28.805 46.2875 28.8575 46.34C28.8575 46.3925 28.8575 46.3925 28.91 46.3925V46.4975H28.7V46.235ZM29.0675 46.2875C29.1725 46.235 29.2775 46.13 29.33 46.0775H29.435C29.435 46.0775 29.3825 46.13 29.33 46.1825L29.12 46.3925H29.0675V46.2875ZM29.4875 45.92L29.54 45.8675C29.645 45.7625 29.6975 45.6575 29.8025 45.5525V45.5H29.9075C29.855 45.5525 29.855 45.605 29.855 45.605C29.75 45.71 29.6975 45.815 29.5925 45.92H29.4875ZM29.9075 45.3425C29.96 45.29 29.96 45.185 30.0125 45.185C30.065 45.2375 30.0125 45.2375 30.0125 45.29C30.0125 45.29 30.0125 45.29 30.0125 45.3425H29.9075ZM28.91 46.97C28.91 47.0225 28.91 47.0225 28.91 47.075H28.7V46.655H28.91V46.97ZM28.805 47.2325C28.7525 47.2325 28.7525 47.285 28.7 47.3375V47.2325H28.805ZM28.5425 47.495C28.49 47.5475 28.4375 47.6 28.385 47.6H25.9175C25.8125 47.495 25.76 47.3375 25.7075 47.2325H28.5425V47.495ZM28.175 47.7575C28.07 47.8625 27.965 47.915 27.86 47.9675C27.1775 48.2825 26.5475 48.23 26.075 47.7575H28.175ZM25.6025 47.075C25.6025 46.9175 25.55 46.76 25.55 46.655H28.5425V47.075H25.6025ZM26.075 43.61C25.97 43.505 25.9175 43.3475 25.865 43.295C25.655 43.295 25.445 43.3475 25.235 43.3475V43.19H28.5425V43.61H26.075ZM25.0775 43.4C25.025 43.4525 24.9725 43.4525 24.92 43.505V43.19H25.0775V43.4ZM24.7625 43.5575C24.71 43.5575 24.6575 43.61 24.605 43.61H22.0325C22.0325 43.5575 21.98 43.5575 21.98 43.505C21.9275 43.4 21.9275 43.295 21.875 43.19H24.7625V43.5575ZM24.3425 43.7675C24.1325 43.925 24.0275 44.0825 23.9225 44.1875H22.295H22.3475C22.3475 44.1875 22.19 43.925 22.1375 43.8725C22.1375 43.82 22.1375 43.82 22.1375 43.7675H24.3425ZM23.8175 44.345C23.7125 44.5025 23.66 44.66 23.3975 44.765H23.135C22.9775 44.7125 22.8725 44.66 22.715 44.555C22.6625 44.5025 22.61 44.45 22.505 44.345H23.8175ZM23.3975 44.9225C23.45 45.0275 23.555 45.185 23.66 45.3425H23.555C23.5025 45.2375 23.45 45.185 23.3975 45.08C23.3975 45.08 23.345 44.975 23.2925 44.9225H23.3975ZM23.765 45.5C23.87 45.605 23.9225 45.6575 23.975 45.71C24.0275 45.7625 24.1325 45.8675 24.0275 45.8675L23.9225 45.7625C23.87 45.71 23.765 45.605 23.66 45.5H23.765ZM22.4 44.345C22.4 44.5025 22.4525 44.6075 22.505 44.765H22.4C22.3475 44.6075 22.3475 44.5025 22.295 44.345H22.4ZM22.5575 44.9225C22.61 45.08 22.6625 45.2375 22.715 45.3425H22.6625C22.61 45.185 22.505 45.08 22.4525 44.9225H22.5575ZM22.82 45.5C22.925 45.6575 23.03 45.7625 23.135 45.92H23.03L22.9775 45.815C22.8725 45.71 22.82 45.605 22.7675 45.5H22.82ZM23.2925 46.0775C23.3975 46.1825 23.345 46.235 23.2925 46.1825L23.1875 46.0775H23.2925ZM21.875 43.0325C21.8225 42.9275 21.8225 42.77 21.8225 42.665H24.7625V43.0325H21.875ZM21.875 42.455C21.875 42.35 21.9275 42.1925 21.98 42.0875H24.7625V42.455H21.875ZM22.085 41.93C22.19 41.72 22.3475 41.615 22.505 41.51H24.7625V41.93H22.085ZM22.8725 41.3525C23.3975 41.1425 24.08 41.195 24.6575 41.3C24.6575 41.3 24.71 41.3 24.7625 41.3V41.3525H22.8725ZM25.34 41.51C25.34 41.51 25.3925 41.51 25.445 41.5625C25.8125 41.72 25.9175 41.825 26.075 41.93H25.235V41.51H25.34ZM26.1275 41.93C26.18 41.8775 26.18 41.825 26.3375 41.72C26.39 41.72 26.495 41.615 26.5475 41.615C26.5475 41.5625 26.5475 41.51 26.5475 41.51H28.07C28.0175 41.615 27.965 41.6675 27.86 41.7725C27.9125 41.825 27.965 41.8775 27.965 41.8775L28.0175 41.93H26.1275ZM26.5475 41.3525C26.495 41.195 26.495 41.0375 26.4425 40.9325H28.28C28.2275 41.09 28.175 41.2475 28.1225 41.3525H26.5475ZM26.4425 40.775C26.39 40.6175 26.3375 40.46 26.285 40.355H28.49C28.4375 40.5125 28.385 40.6175 28.3325 40.775H26.4425ZM26.18 40.1975C26.1275 40.04 26.0225 39.935 25.9175 39.7775H28.5425C28.5425 39.83 28.5425 39.83 28.5425 39.8825C28.5425 39.9875 28.5425 40.0925 28.49 40.1975H26.18ZM25.76 39.62C25.655 39.515 25.55 39.4625 25.445 39.3575C25.34 39.305 25.2875 39.2525 25.235 39.2525V39.2H28.5425V39.62H25.76ZM25.025 39.2C25.025 39.2525 24.9725 39.2525 24.92 39.305V39.2H25.025ZM24.7625 39.41C24.605 39.4625 24.5 39.5675 24.395 39.62H24.29C24.4475 39.515 24.605 39.41 24.7625 39.305V39.41ZM24.2375 39.7775C24.1325 39.8825 24.08 39.935 23.975 40.04C23.9225 40.0925 23.9225 40.145 23.87 40.1975H23.765C23.8175 40.145 23.87 40.04 23.9225 39.9875C23.975 39.935 24.0275 39.8825 24.1325 39.7775H24.2375ZM23.765 40.355C23.7125 40.4075 23.7125 40.46 23.66 40.46C23.66 40.4075 23.66 40.46 23.66 40.4075V40.355H23.765ZM25.235 38.4125C25.34 38.3075 25.445 38.2025 25.55 38.0975H28.28C28.3325 38.2025 28.385 38.3075 28.4375 38.465H25.235V38.4125ZM25.7075 37.8875C25.9175 37.73 26.18 37.5725 26.495 37.52H27.5975C27.755 37.5725 27.9125 37.6775 28.07 37.835C28.1225 37.835 28.1225 37.8875 28.175 37.8875H25.7075ZM28.49 38.6225C28.5425 38.78 28.5425 38.9375 28.5425 39.0425H25.235V38.6225H28.49ZM28.1225 42.0875C28.175 42.14 28.175 42.245 28.2275 42.2975C28.3325 42.245 28.4375 42.245 28.5425 42.245V42.455H25.235V42.0875H28.1225ZM28.7 42.1925C28.7525 42.1925 28.8575 42.1925 28.91 42.1925V42.455H28.7V42.1925ZM27.1775 18.935C27.44 18.935 27.65 18.9875 27.9125 18.9875H28.5425V18.5675H25.235V18.9875H26.39C26.6525 18.9875 26.915 18.935 27.1775 18.935ZM28.7525 19.145C28.805 19.145 28.8575 19.1975 28.91 19.1975V19.145H28.7525ZM29.0675 19.25C29.33 19.355 29.645 19.46 29.9075 19.565H32.4275V19.145H29.0675V19.25ZM30.2225 19.7225C30.4325 19.8275 30.6425 19.985 30.8525 20.1425H32.4275V19.7225H30.2225ZM31.0625 20.3C31.22 20.405 31.3775 20.5625 31.535 20.72H32.4275V20.3H31.0625ZM31.6925 20.8775C31.85 20.9825 31.955 21.14 32.06 21.2975H32.4275V20.8775H31.6925ZM32.2175 21.455C32.27 21.56 32.375 21.665 32.4275 21.77V21.455H32.2175ZM32.6375 22.0325C32.69 22.1375 32.7425 22.2425 32.795 22.3475V22.0325H32.6375ZM32.9525 22.61C33.005 22.7675 33.0575 22.8725 33.11 22.9775H34.475V22.5575H32.9525V22.61ZM33.215 23.135C33.2675 23.2925 33.2675 23.45 33.32 23.555H34.475V23.135H33.215ZM33.3725 23.7125C33.425 23.87 33.4775 23.975 33.4775 24.1325H34.475V23.7125H33.3725ZM33.53 24.29C33.53 24.4475 33.5825 24.5525 33.5825 24.71H34.475V24.29H33.53ZM33.635 24.8675C33.635 25.025 33.635 25.13 33.635 25.2875H34.475V24.8675H33.635ZM33.635 25.445C33.6875 25.4975 33.6875 25.6025 33.6875 25.655C33.6875 25.76 33.6875 25.8125 33.6875 25.865H34.475V25.445H33.635ZM33.635 26.0225C33.635 26.1275 33.635 26.285 33.635 26.4425H34.475V26.0225H33.635ZM33.5825 26.6C33.5825 26.705 33.5825 26.8625 33.53 26.9675H34.475V26.6H33.5825ZM33.53 27.125C33.4775 27.2825 33.425 27.44 33.425 27.545H34.475V27.125H33.53ZM33.3725 27.7025C33.32 27.86 33.2675 28.0175 33.215 28.1225H34.475V27.7025H33.3725ZM33.1625 28.28C33.11 28.4375 33.0575 28.595 32.9525 28.7H34.475V28.28H33.1625ZM32.795 29.015C32.7425 29.12 32.69 29.1725 32.6375 29.2775H32.795V29.015ZM32.4275 29.5925C32.375 29.6975 32.3225 29.75 32.27 29.855H32.4275V29.5925ZM32.165 30.0125C32.0075 30.17 31.9025 30.275 31.7975 30.4325H32.4275V30.0125H32.165ZM31.64 30.59C31.4825 30.695 31.325 30.8525 31.1675 31.01H32.4275V30.59H31.64ZM30.9575 31.1675C30.7475 31.2725 30.5375 31.43 30.3275 31.535H32.4275V31.1675H30.9575ZM30.0125 31.6925C29.75 31.9025 29.3825 32.0075 29.0675 32.1125H32.4275V31.6925H30.0125ZM28.385 32.27C28.0175 32.375 27.5975 32.4275 27.1775 32.4275C26.7575 32.4275 26.3375 32.375 25.9175 32.27H25.235V32.69H28.5425V32.27H28.385ZM25.2875 32.1125H25.235H25.2875ZM25.0775 32.06C25.025 32.06 24.9725 32.0075 24.92 32.0075V32.1125H25.0775V32.06ZM24.7625 31.9025C24.605 31.85 24.4475 31.7975 24.29 31.6925H21.4025V32.1125H24.7625V31.9025ZM24.0275 31.535C23.765 31.43 23.555 31.2725 23.3975 31.1675H21.4025V31.535H24.0275ZM23.1875 31.01C23.03 30.8525 22.8725 30.7475 22.715 30.59H21.4025V31.01H23.1875ZM22.5575 30.4325C22.4 30.275 22.295 30.17 22.19 30.0125H21.4025V30.4325H22.5575ZM22.085 29.855C21.98 29.6975 21.875 29.5925 21.77 29.435H21.4025V29.855H22.085ZM21.665 29.2775C21.6125 29.12 21.5075 29.015 21.455 28.8575H21.4025V29.2775H21.665ZM21.245 28.4375C21.1925 28.385 21.1925 28.3325 21.1925 28.28H21.035V28.7H21.245V28.4375ZM21.0875 28.1225C21.0875 28.07 21.035 27.965 21.035 27.9125V28.1225H21.0875ZM20.8775 27.3875C20.8775 27.2825 20.825 27.23 20.825 27.125H19.8275V27.545H20.8775V27.3875ZM20.7725 26.9675C20.7725 26.8625 20.72 26.705 20.72 26.6H19.8275V26.9675H20.7725ZM20.72 26.4425C20.6675 26.285 20.6675 26.1275 20.6675 26.0225H19.8275V26.4425H20.72ZM20.6675 25.865C20.6675 25.8125 20.6675 25.76 20.6675 25.655C20.6675 25.6025 20.6675 25.4975 20.6675 25.445H19.8275V25.865H20.6675ZM20.6675 25.2875C20.6675 25.13 20.72 25.025 20.72 24.8675H19.8275V25.2875H20.6675ZM20.72 24.71C20.7725 24.5525 20.7725 24.4475 20.825 24.29H19.8275V24.71H20.72ZM20.825 24.1325C20.825 24.08 20.8775 24.0275 20.8775 23.975V23.7125H19.8275V24.1325H20.825ZM21.035 23.45C21.0875 23.345 21.0875 23.24 21.14 23.135H21.035V23.45ZM21.1925 22.9775L21.245 22.925V22.5575H21.035V22.9775H21.1925ZM21.4025 22.61V22.5575V22.61ZM21.455 22.4C21.56 22.295 21.6125 22.1375 21.7175 22.0325H21.4025V22.4H21.455ZM21.8225 21.875C21.9275 21.7175 22.0325 21.56 22.1375 21.455H21.4025V21.875H21.8225ZM22.2425 21.2975C22.3475 21.14 22.505 20.9825 22.61 20.8775H21.4025V21.2975H22.2425ZM22.7675 20.72C22.925 20.5625 23.0825 20.405 23.24 20.3H21.4025V20.72H22.7675ZM23.5025 20.1425C23.7125 19.985 23.9225 19.8275 24.1325 19.7225H21.4025V20.1425H23.5025ZM24.4475 19.565C24.5525 19.5125 24.6575 19.46 24.7625 19.46V19.145H21.4025V19.565H24.4475ZM24.92 19.355C24.9725 19.355 25.025 19.3025 25.0775 19.3025V19.145H24.92V19.355ZM25.235 19.25C25.34 19.1975 25.445 19.1975 25.55 19.145H25.235V19.25ZM23.24 22.4C23.24 22.295 23.45 22.085 23.5025 22.0325H23.6075C23.6075 22.0325 23.6075 22.0325 23.555 22.085L23.345 22.4C23.2925 22.4 23.2925 22.4 23.2925 22.4H23.24ZM23.66 21.875C23.8175 21.7175 23.975 21.56 24.185 21.455H24.3425C24.1325 21.56 23.9225 21.7175 23.765 21.875H23.66ZM24.4475 21.2975C24.5525 21.245 24.605 21.1925 24.71 21.1925L24.7625 21.14V21.245C24.71 21.245 24.6575 21.245 24.6575 21.2975H24.4475ZM24.92 21.0875C24.9725 21.0875 24.9725 21.0875 24.9725 21.0875C24.9725 21.1925 25.025 21.14 24.92 21.1925V21.0875ZM28.805 30.1175C28.8575 30.065 28.8575 30.065 28.91 30.0125V30.1175H28.8575C28.805 30.1175 28.8575 30.1175 28.805 30.1175ZM29.2775 29.855C29.54 29.6975 29.6975 29.5925 29.9075 29.435H30.0125C29.96 29.435 29.96 29.4875 29.9075 29.4875C29.855 29.5925 29.645 29.6975 29.435 29.855H29.2775ZM30.065 29.2775C30.17 29.1725 30.275 29.015 30.4325 28.8575H30.485C30.4325 28.9625 30.38 29.015 30.3275 29.0675C30.275 29.1725 30.2225 29.225 30.17 29.2775H30.065ZM30.5375 28.7V28.6475C30.59 28.595 30.59 28.5425 30.6425 28.5425C30.6425 28.595 30.6425 28.6475 30.59 28.7H30.5375ZM29.1725 30.0125C29.12 30.0125 29.12 30.065 29.0675 30.065V30.0125H29.1725ZM30.38 23.7125H31.3775V23.765C31.43 23.8175 31.4825 23.8175 31.535 23.9225L31.6925 24.0275C31.6925 24.08 31.6925 24.1325 31.745 24.1325H30.1175C30.2225 24.0275 30.3275 23.87 30.38 23.7125ZM30.275 23.555C30.17 23.45 30.065 23.2925 30.0125 23.24C30.0125 23.24 29.96 23.1875 29.9075 23.135H30.0125C30.1175 23.24 30.2225 23.345 30.275 23.45C30.3275 23.5025 30.3275 23.5025 30.38 23.555H30.275ZM29.75 22.9775C29.6975 22.925 29.645 22.8725 29.645 22.8725C29.645 22.7675 29.855 22.9775 29.855 22.9775H29.75ZM30.59 23.555C30.695 23.5025 30.8525 23.45 31.115 23.555H30.59ZM31.22 23.555C31.1675 23.45 31.115 23.2925 31.01 23.135H31.115C31.115 23.1875 31.1675 23.24 31.22 23.2925C31.22 23.345 31.2725 23.45 31.325 23.555H31.22ZM30.905 22.9775C30.905 22.9775 30.8525 22.925 30.8525 22.8725C30.695 22.715 30.6425 22.6625 30.59 22.5575H30.695C30.8 22.715 30.905 22.8725 31.01 22.9775H30.905ZM30.4325 22.4C30.38 22.4 30.3275 22.3475 30.3275 22.295C30.38 22.295 30.4325 22.3475 30.5375 22.4H30.4325ZM31.85 24.29C31.955 24.4475 32.0075 24.5525 32.06 24.71H29.3825C29.5925 24.605 29.8025 24.4475 29.96 24.29H31.85ZM32.1125 24.8675C32.165 25.025 32.2175 25.13 32.2175 25.2875H29.0675V24.8675H32.1125ZM32.2175 25.445C32.27 25.55 32.2175 25.7075 32.2175 25.865H29.0675V25.445H32.2175ZM32.165 26.0225C32.165 26.075 32.1125 26.1275 32.06 26.18C32.06 26.285 32.0075 26.3375 31.955 26.4425H29.0675V26.0225H32.165ZM31.7975 26.6C31.5875 26.7575 31.325 26.915 31.0625 26.9675H29.4875C29.33 26.9675 29.225 26.915 29.0675 26.8625V26.6H31.7975ZM28.91 26.81C28.8575 26.81 28.7525 26.81 28.7 26.7575V26.6H28.91V26.81ZM28.5425 26.705C28.49 26.6525 28.4375 26.6 28.385 26.6H28.3325H28.5425V26.705ZM28.07 26.4425C28.07 26.39 28.07 26.39 28.0175 26.39L27.965 26.4425H26.1275C26.1275 26.39 26.1275 26.39 26.075 26.39C25.97 26.2325 25.9175 26.075 25.865 26.0225H28.5425V26.4425H28.07ZM27.8075 26.6C27.755 26.6525 27.65 26.6525 27.545 26.7575C27.545 26.81 27.545 26.8625 27.545 26.9675H25.9175C25.97 26.8625 26.0225 26.7575 26.1275 26.6H27.8075ZM27.5975 27.125C27.5975 27.2825 27.65 27.44 27.65 27.545H25.7075C25.7075 27.4925 25.76 27.44 25.76 27.335C25.8125 27.2825 25.8125 27.23 25.865 27.125H27.5975ZM27.7025 27.7025C27.755 27.86 27.86 28.0175 27.9125 28.1225H25.55C25.6025 28.0175 25.6025 27.86 25.655 27.7025H27.7025ZM28.0175 28.28C28.1225 28.49 28.28 28.595 28.4375 28.7H25.4975C25.4975 28.5425 25.55 28.4375 25.55 28.28H28.0175ZM28.7 28.9625C28.7525 28.9625 28.805 29.015 28.8575 29.0675C28.8575 29.12 28.8575 29.12 28.91 29.12V29.2775H28.7V28.9625ZM29.0675 29.015C29.12 28.9625 29.1725 28.91 29.225 28.8575H29.3825H29.33L29.12 29.0675L29.0675 29.12V29.015ZM29.3825 28.7L29.54 28.595C29.5925 28.49 29.6975 28.385 29.75 28.28H29.855V28.3325C29.75 28.4375 29.645 28.595 29.54 28.7H29.3825ZM29.855 28.1225C29.9075 28.0175 29.96 27.9125 30.0125 27.9125C30.065 27.965 30.0125 27.965 30.0125 27.965C30.0125 28.0175 29.96 28.07 29.96 28.1225H29.855ZM28.91 29.6975C28.91 29.75 28.8575 29.8025 28.8575 29.855H28.7V29.435H28.91V29.6975ZM28.7525 30.0125H28.7H28.7525ZM28.5425 30.17C28.49 30.275 28.385 30.3275 28.28 30.4325H25.97C25.865 30.275 25.8125 30.17 25.7075 30.0125H28.5425V30.17ZM28.0175 30.59C27.965 30.59 27.9125 30.6425 27.86 30.6425C27.23 30.9575 26.6 30.9575 26.1275 30.59H28.0175ZM25.655 29.855C25.6025 29.6975 25.55 29.5925 25.55 29.435H28.5425V29.855H25.655ZM25.55 29.2775C25.4975 29.12 25.4975 29.015 25.4975 28.8575H28.5425V29.2775H25.55ZM25.7075 26.0225C25.55 26.0225 25.3925 26.0225 25.235 26.075V26.0225H25.7075ZM25.0775 26.1275C25.025 26.1275 24.9725 26.18 24.92 26.18V26.0225H25.0775V26.1275ZM24.7625 26.285C24.6575 26.285 24.5525 26.3375 24.4475 26.4425H22.085C22.0325 26.3375 22.0325 26.285 21.98 26.18C21.98 26.1275 21.9275 26.075 21.9275 26.0225H24.7625V26.285ZM24.2375 26.6C24.08 26.7575 23.975 26.8625 23.87 26.9675H22.4525C22.4 26.9675 22.4 26.915 22.4 26.915C22.4 26.9675 22.4 26.8625 22.4 26.9675H22.295V26.915L22.3475 26.8625C22.3475 26.8625 22.19 26.6525 22.19 26.6H24.2375ZM23.765 27.125C23.66 27.2825 23.6075 27.3875 23.345 27.4925V27.545H23.2925C23.24 27.545 23.24 27.4925 23.24 27.4925C22.9775 27.44 22.925 27.44 22.715 27.2825C22.715 27.23 22.6625 27.23 22.61 27.125H23.765ZM23.45 27.7025C23.5025 27.86 23.6075 28.0175 23.7125 28.1225H23.6075C23.555 28.0175 23.45 27.9125 23.3975 27.8075C23.3975 27.8075 23.3975 27.755 23.345 27.7025H23.45ZM23.87 28.28C23.9225 28.3325 23.9225 28.385 23.975 28.4375C24.0275 28.4375 24.1325 28.595 24.0275 28.5425L23.9225 28.49C23.87 28.4375 23.8175 28.385 23.765 28.28H23.87ZM22.4 27.125C22.4525 27.2825 22.4525 27.44 22.505 27.545H22.4525C22.4 27.44 22.3475 27.2825 22.3475 27.125H22.4ZM22.5575 27.7025C22.6625 27.86 22.715 27.965 22.7675 28.07V28.1225H22.715C22.61 28.0175 22.5575 27.86 22.505 27.7025H22.5575ZM22.8725 28.28C22.9775 28.4375 23.0825 28.595 23.1875 28.7H23.135L22.9775 28.5425C22.925 28.4375 22.8725 28.385 22.82 28.28H22.8725ZM23.345 28.8575C23.345 28.91 23.2925 28.91 23.2925 28.8575H23.24H23.345ZM21.875 25.865C21.8225 25.7075 21.8225 25.6025 21.8225 25.445H24.7625V25.865H21.875ZM21.8225 25.2875C21.875 25.13 21.9275 24.9725 21.98 24.8675H24.7625V25.2875H21.8225ZM22.0325 24.71C22.1375 24.5525 22.2425 24.395 22.4 24.29H24.7625V24.71H22.0325ZM22.6625 24.1325C23.24 23.87 24.0275 23.87 24.6575 24.0275C24.6575 24.0275 24.71 24.0275 24.7625 24.0275V24.1325H22.6625ZM24.92 24.08C24.9725 24.08 25.025 24.1325 25.0775 24.1325H24.92V24.08ZM25.4975 24.29C25.8125 24.4475 25.97 24.5525 26.1275 24.6575C26.18 24.605 26.18 24.5525 26.3375 24.4475C26.39 24.395 26.495 24.3425 26.5475 24.29H28.0175C27.965 24.3425 27.9125 24.4475 27.86 24.5C27.9125 24.5525 27.965 24.5525 27.965 24.605C28.0175 24.6575 28.0175 24.6575 28.07 24.71H25.235V24.29H25.4975ZM26.5475 24.1325C26.5475 23.975 26.495 23.87 26.495 23.7125H28.28C28.2275 23.87 28.175 24.0275 28.07 24.1325H26.5475ZM26.4425 23.555C26.4425 23.3975 26.39 23.2925 26.3375 23.135H28.4375C28.4375 23.2925 28.385 23.45 28.3325 23.555H26.4425ZM26.2325 22.9775C26.18 22.8725 26.075 22.715 25.97 22.5575H28.5425V22.61C28.5425 22.715 28.49 22.8725 28.49 22.9775H26.2325ZM25.8125 22.4C25.7075 22.295 25.6025 22.19 25.445 22.085C25.3925 22.085 25.34 22.0325 25.34 22.0325H28.5425V22.4H25.8125ZM24.7625 22.085C24.5525 22.19 24.395 22.3475 24.3425 22.4H24.29H24.185C24.3425 22.295 24.5525 22.1375 24.71 22.0325H24.7625V22.085ZM24.1325 22.5575C24.08 22.61 24.0275 22.6625 23.975 22.7675C23.9225 22.82 23.87 22.8725 23.8175 22.9775H23.7125L23.765 22.925C23.8175 22.8725 23.87 22.7675 23.9225 22.715C23.975 22.6625 23.975 22.61 24.0275 22.5575H24.1325ZM23.7125 23.135C23.7125 23.135 23.66 23.135 23.66 23.1875C23.66 23.135 23.66 23.135 23.66 23.135H23.7125ZM25.025 21.875C25.0775 21.8225 25.0775 21.8225 25.0775 21.8225V21.875H25.025ZM25.235 21.14C25.2875 21.035 25.3925 20.93 25.445 20.8775H28.3325C28.385 20.9825 28.4375 21.14 28.49 21.2975H25.235V21.14ZM25.6025 20.72C25.8125 20.5625 26.0225 20.405 26.2325 20.3H27.755C27.86 20.3525 27.965 20.4575 28.07 20.51C28.1225 20.5625 28.175 20.6675 28.2275 20.72H25.6025ZM26.7575 20.1425C26.9675 20.09 27.125 20.09 27.335 20.1425H26.7575ZM28.49 21.455C28.5425 21.56 28.5425 21.665 28.5425 21.8225V21.875H25.235V21.455H28.49ZM28.175 24.8675C28.175 24.92 28.2275 24.9725 28.2275 24.9725C28.3325 24.9725 28.4375 24.9725 28.5425 24.9725V25.2875H25.235V24.8675H28.175ZM28.7 24.92C28.7525 24.92 28.8575 24.92 28.91 24.8675V25.2875H28.7V24.92ZM20.8775 35H33.4775C33.7925 35 34.1075 35.1575 34.3175 35.3675C34.4225 35.4725 34.5275 35.5775 34.58 35.6825C34.6325 35.8925 34.685 36.05 34.685 36.26V49.7C34.685 50.015 34.58 50.33 34.3175 50.5925C34.1075 50.8025 33.7925 50.96 33.4775 50.96H20.8775C20.51 50.96 20.195 50.8025 19.985 50.5925C19.775 50.33 19.6175 50.015 19.6175 49.7V36.26C19.6175 35.8925 19.775 35.5775 19.985 35.3675C20.195 35.1575 20.51 35 20.8775 35ZM33.4775 35.21H32.9525V35.63H34.265C34.265 35.5775 34.2125 35.5775 34.2125 35.525C34.0025 35.315 33.74 35.21 33.4775 35.21ZM32.795 35.21H32.585V35.63H32.795V35.21ZM32.4275 35.21H29.0675V35.63H32.4275V35.21ZM28.91 35.21H28.7V35.63H28.91V35.21ZM28.5425 35.21H25.235V35.63H28.5425V35.21ZM25.0775 35.21H24.92V35.63H25.0775V35.21ZM24.7625 35.21H21.4025V35.63H24.7625V35.21ZM21.245 35.21H21.035V35.63H21.245V35.21ZM20.8775 35.21C20.5625 35.21 20.3 35.315 20.1425 35.525C20.09 35.5775 20.09 35.5775 20.0375 35.63H20.8775V35.21ZM19.9325 35.7875C19.88 35.8925 19.8275 36.05 19.8275 36.2075H20.8775V35.7875H19.9325ZM19.8275 36.365V36.785H20.8775V36.365H19.8275ZM19.8275 36.9425V37.3625H20.8775V36.9425H19.8275ZM19.8275 37.52V37.8875H20.8775V37.52H19.8275ZM19.8275 38.0975V38.465H20.8775V38.0975H19.8275ZM19.8275 38.6225V39.0425H20.8775V38.6225H19.8275ZM19.8275 39.2V39.62H20.8775V39.2H19.8275ZM19.8275 39.7775V40.1975H20.8775V39.7775H19.8275ZM19.8275 40.355V40.775H20.8775V40.355H19.8275ZM19.8275 44.9225V45.3425H20.8775V44.9225H19.8275ZM19.8275 45.5V45.92H20.8775V45.5H19.8275ZM19.8275 46.0775V46.4975H20.8775V46.0775H19.8275ZM19.8275 46.655V47.075H20.8775V46.655H19.8275ZM19.8275 47.2325V47.6H20.8775V47.2325H19.8275ZM19.8275 47.7575V48.1775H20.8775V47.7575H19.8275ZM19.8275 48.335V48.755H20.8775V48.335H19.8275ZM19.8275 48.9125V49.3325H20.8775V48.9125H19.8275ZM19.8275 49.49V49.7C19.8275 49.7525 19.8275 49.8575 19.88 49.91H20.8775V49.49H19.8275ZM19.9325 50.0675C19.985 50.1725 20.0375 50.33 20.1425 50.435C20.3 50.5925 20.5625 50.75 20.8775 50.75V50.0675H19.9325ZM21.035 50.75H21.245V50.0675H21.035V50.75ZM21.4025 50.75H24.7625V50.0675H21.4025V50.75ZM24.92 50.75H25.0775V50.0675H24.92V50.75ZM25.235 50.75H28.5425V50.0675H25.235V50.75ZM28.7 50.75H28.91V50.0675H28.7V50.75ZM29.0675 50.75H32.4275V50.0675H29.0675V50.75ZM32.585 50.75H32.795V50.0675H32.585V50.75ZM32.9525 50.75H33.4775C33.74 50.75 34.0025 50.5925 34.2125 50.435C34.265 50.33 34.37 50.1725 34.4225 50.0675H32.9525V50.75ZM34.475 49.91C34.475 49.8575 34.475 49.7525 34.475 49.7V49.49H32.9525V49.91H34.475ZM34.475 49.3325V48.9125H32.9525V49.3325H34.475ZM34.475 48.755V48.335H32.9525V48.755H34.475ZM34.475 48.1775V47.7575H32.9525V48.1775H34.475ZM34.475 47.6V47.2325H32.9525V47.6H34.475ZM34.475 47.075V46.655H32.9525V47.075H34.475ZM34.475 46.4975V46.0775H32.9525V46.4975H34.475ZM34.475 39.62V39.2H32.9525V39.62H34.475ZM34.475 39.0425V38.6225H32.9525V39.0425H34.475ZM34.475 38.465V38.0975H32.9525V38.465H34.475ZM34.475 37.8875V37.52H32.9525V37.8875H34.475ZM34.475 37.3625V36.9425H32.9525V37.3625H34.475ZM34.475 36.785V36.365H32.9525V36.785H34.475ZM34.475 36.2075C34.475 36.05 34.4225 35.8925 34.37 35.7875H32.9525V36.2075H34.475ZM20.8775 17.7275H33.4775C33.7925 17.7275 34.1075 17.8325 34.3175 18.095C34.58 18.305 34.685 18.62 34.685 18.9875V32.375C34.685 32.7425 34.58 33.0575 34.3175 33.2675C34.1075 33.53 33.7925 33.635 33.4775 33.635H20.8775C20.51 33.635 20.195 33.53 19.985 33.2675C19.775 33.0575 19.6175 32.7425 19.6175 32.375V18.9875C19.6175 18.62 19.775 18.305 19.985 18.095C20.195 17.8325 20.51 17.7275 20.8775 17.7275ZM33.4775 17.9375H20.8775C20.5625 17.9375 20.3 18.0425 20.1425 18.2525C20.09 18.305 20.0375 18.3575 19.985 18.41H20.8775V17.9375H21.035V18.41H21.245V17.9375H21.4025V18.41H24.7625V17.9375H24.92V18.41H25.0775V17.9375H25.235V18.41H28.5425V17.9375H28.7V18.41H28.91V17.9375H29.0675V18.41H32.4275V17.9375H32.585V18.41H32.795V17.9375H32.9525V18.41H34.3175C34.3175 18.3575 34.265 18.305 34.2125 18.2525C34.0025 18.0425 33.74 17.9375 33.4775 17.9375ZM19.9325 18.5675C19.88 18.725 19.8275 18.83 19.8275 18.9875H20.8775V18.5675H19.9325ZM19.8275 19.145V19.565H20.8775V19.145H19.8275ZM19.8275 19.7225V20.1425H20.8775V19.7225H19.8275ZM19.8275 20.3V20.72H20.8775V20.3H19.8275ZM19.8275 20.8775V21.2975H20.8775V20.8775H19.8275ZM19.8275 21.455V21.875H20.8775V21.455H19.8275ZM19.8275 22.0325V22.4H20.8775V22.0325H19.8275ZM19.8275 22.5575V22.9775H20.8775V22.5575H19.8275ZM19.8275 23.135V23.555H20.8775V23.135H19.8275ZM19.8275 27.7025V28.1225H20.8775V27.7025H19.8275ZM19.8275 28.28V28.7H20.8775V28.28H19.8275ZM19.8275 28.8575V29.2775H20.8775V28.8575H19.8275ZM19.8275 29.435V29.855H20.8775V29.435H19.8275ZM19.8275 30.0125V30.4325H20.8775V30.0125H19.8275ZM19.8275 30.59V31.01H20.8775V30.59H19.8275ZM19.8275 31.1675V31.535H20.8775V31.1675H19.8275ZM19.8275 31.6925V32.1125H20.8775V31.6925H19.8275ZM19.8275 32.27V32.375C19.8275 32.48 19.88 32.585 19.88 32.69H20.8775V32.27H19.8275ZM19.9325 32.8475C19.985 32.9525 20.0375 33.0575 20.1425 33.11C20.3 33.32 20.5625 33.425 20.8775 33.425V32.8475H19.9325ZM21.035 33.425H21.245V32.8475H21.035V33.425ZM21.4025 33.425H24.7625V32.8475H21.4025V33.425ZM24.92 33.425H25.0775V32.8475H24.92V33.425ZM25.235 33.425H28.5425V32.8475H25.235V33.425ZM28.7 33.425H28.91V32.8475H28.7V33.425ZM29.0675 33.425H32.4275V32.8475H29.0675V33.425ZM32.585 33.425H32.795V32.8475H32.585V33.425ZM32.9525 33.425H33.4775C33.74 33.425 34.0025 33.32 34.2125 33.11C34.265 33.0575 34.3175 32.9525 34.37 32.8475H32.9525V33.425ZM34.4225 32.69C34.475 32.585 34.475 32.48 34.475 32.375V32.27H32.9525V32.69H34.4225ZM34.475 32.1125V31.6925H32.9525V32.1125H34.475ZM34.475 31.535V31.1675H32.9525V31.535H34.475ZM34.475 31.01V30.59H32.9525V31.01H34.475ZM34.475 30.4325V30.0125H32.9525V30.4325H34.475ZM34.475 29.855V29.435H32.9525V29.855H34.475ZM34.475 29.2775V28.8575H32.9525V29.2775H34.475ZM34.475 22.4V22.0325H32.9525V22.4H34.475ZM34.475 21.875V21.455H32.9525V21.875H34.475ZM34.475 21.2975V20.8775H32.9525V21.2975H34.475ZM34.475 20.72V20.3H32.9525V20.72H34.475ZM34.475 20.1425V19.7225H32.9525V20.1425H34.475ZM34.475 19.565V19.145H32.9525V19.565H34.475ZM34.475 18.9875C34.475 18.83 34.475 18.725 34.4225 18.5675H32.9525V18.9875H34.475ZM49.4375 15.89V47.4425C48.755 47.4425 46.34 47.4425 44.8175 47.495V41.5625L46.97 39.515V39.4625V15.89H46.8125V39.41L44.66 41.4575H44.6075V41.51L44.66 47.495C44.1875 47.495 43.8725 47.495 43.715 47.495C43.5575 47.495 43.4525 47.5475 43.3475 47.6525C43.19 47.705 43.085 47.81 43.0325 47.9675C42.77 48.2825 42.77 48.545 42.8225 48.9125C42.8225 49.0175 42.8225 49.07 42.8225 49.175V52.745H36.365V15.89H49.4375ZM49.4375 47.6V48.1775C48.9125 48.1775 46.3925 48.23 45.185 48.23C44.555 48.23 44.1875 48.335 43.9775 48.5975C43.715 48.86 43.715 49.28 43.715 49.9625L43.7675 52.745H43.0325L42.98 49.175C42.98 49.07 42.98 48.965 42.98 48.9125C42.98 48.5975 42.9275 48.335 43.1375 48.0725C43.2425 47.9675 43.295 47.8625 43.4 47.81C43.505 47.705 43.61 47.705 43.715 47.705C44.2925 47.6525 48.4925 47.6525 49.4375 47.6ZM49.4375 48.3875V52.745H43.925L43.8725 49.9625C43.8725 49.3325 43.925 48.965 44.0825 48.7025C44.24 48.4925 44.6075 48.44 45.185 48.44C46.3925 48.3875 48.9125 48.3875 49.4375 48.3875ZM36.2075 52.745H17.9375V15.89H36.2075V52.745ZM49.4375 53.1125V53.4275C49.4375 54.11 48.9125 54.635 48.2825 54.635H19.0925C18.4625 54.635 17.9375 54.11 17.9375 53.4275V53.1125H49.4375Z" fill="#641A89"/>
</svg>
