<svg width="70" height="70" viewBox="0 0 70 70" fill="none" xmlns="http://www.w3.org/2000/svg">
<circle opacity="0.05" cx="35" cy="35" r="35" fill="#641A89"/>
<path d="M38.1912 26.4662L39.5703 24.5712C37.3575 22.9606 34.737 22.1094 31.9922 22.1094C29.2473 22.1094 26.6269 22.9606 24.4141 24.5712L25.7932 26.4662C27.6027 25.1492 29.7463 24.4531 31.9922 24.4531C34.2381 24.4531 36.3817 25.1492 38.1912 26.4662Z" fill="#641A89"/>
<path d="M21.6585 20.7786L23.0377 22.6736C25.6517 20.7712 28.7481 19.7656 31.9922 19.7656C35.2362 19.7656 38.3327 20.7712 40.9466 22.6736L42.3258 20.7786C39.3084 18.5826 35.7352 17.4219 31.9922 17.4219C28.2492 17.4219 24.6759 18.5826 21.6585 20.7786Z" fill="#641A89"/>
<path d="M25.7932 43.5338L24.4141 45.4288C26.6269 47.0394 29.2474 47.8906 31.9922 47.8906C34.737 47.8906 37.3575 47.0394 39.5703 45.4288L38.1912 43.5338C36.3817 44.8508 34.2381 45.5469 31.9922 45.5469C29.7463 45.5469 27.6027 44.8508 25.7932 43.5338Z" fill="#641A89"/>
<path d="M31.9922 50.2344C28.7481 50.2344 25.6517 49.2288 23.0377 47.3264L21.6586 49.2214C24.6759 51.4174 28.2492 52.5781 31.9922 52.5781C35.7352 52.5781 39.3084 51.4174 42.3259 49.2214L40.9467 47.3264C38.3327 49.2288 35.2362 50.2344 31.9922 50.2344Z" fill="#641A89"/>
<path d="M42.8962 25.5859V30.9654H46.2584V44.4141H51.6378V30.9654H55V25.5859H42.8962Z" fill="#641A89"/>
<path d="M15 25.5859H20.3795V44.4141H15V25.5859Z" fill="#641A89"/>
<path d="M31.9922 43.0692C36.4487 43.0692 40.0614 39.4566 40.0614 35C40.0614 30.5434 36.4487 26.9308 31.9922 26.9308C27.5357 26.9308 23.923 30.5434 23.923 35C23.923 39.4566 27.5357 43.0692 31.9922 43.0692ZM31.9922 32.3102C33.4777 32.3102 34.6819 33.5145 34.6819 35C34.6819 36.4855 33.4777 37.6898 31.9922 37.6898C30.5067 37.6898 29.3024 36.4855 29.3024 35C29.3024 33.5145 30.5067 32.3102 31.9922 32.3102Z" fill="#641A89"/>
</svg>
