<svg width="186" height="24" viewBox="0 0 186 24" fill="none" xmlns="http://www.w3.org/2000/svg">
<path d="M168.191 23.6488V0.414795H171.239V10.8829L181.245 0.414795H185.027L174.287 11.601L185.793 23.6488H181.931L171.239 12.6063V23.6488H168.191Z" fill="#641A89"/>
<path d="M110.7 23.6488L101.987 0.414795H105.386C105.578 0.94671 106.551 3.70203 108.306 8.68075C110.072 13.6595 111.418 17.4361 112.344 20.0105C113.258 17.4148 114.594 13.6542 116.349 8.72863C118.115 3.80309 119.11 1.03182 119.333 0.414795H122.54L113.891 23.6488H110.7Z" fill="#641A89"/>
<path d="M79.7043 23.9999C73.5979 23.9999 70.5447 20.9042 70.5447 14.7127V0.414795H73.5926V14.7765C73.5926 17.0531 74.1085 18.7339 75.1404 19.8191C76.1723 20.8935 77.7043 21.4308 79.7362 21.4308C83.8426 21.4308 85.8957 19.2339 85.8957 14.8403V0.414795H88.9277V14.6808C88.9277 16.0956 88.7574 17.3563 88.417 18.4627C88.0766 19.5691 87.55 20.5478 86.8372 21.3988C86.1245 22.2393 85.167 22.8829 83.9649 23.3297C82.7628 23.7765 81.3426 23.9999 79.7043 23.9999Z" fill="#641A89"/>
<path d="M45.1021 24C41.5915 24 38.8255 22.9202 36.8042 20.7606C34.7936 18.6011 33.7883 15.6862 33.7883 12.016C33.7883 9.64362 34.2298 7.55851 35.1127 5.76064C36.0064 3.95213 37.3149 2.54255 39.0383 1.53191C40.7617 0.510638 42.7936 0 45.134 0C48.5489 0 51.267 1.10638 53.2883 3.31915C55.3202 5.52128 56.3361 8.42021 56.3361 12.016C56.3361 15.6755 55.3361 18.5904 53.3361 20.7606C51.3361 22.9202 48.5915 24 45.1021 24ZM45.0702 21.4309C47.6659 21.4309 49.6393 20.5957 50.9904 18.9255C52.3415 17.2447 53.017 14.9415 53.017 12.016C53.017 9.15426 52.3361 6.86702 50.9744 5.15426C49.6234 3.43085 47.6659 2.56915 45.1021 2.56915C42.5489 2.56915 40.5649 3.43617 39.15 5.17021C37.7457 6.89362 37.0436 9.17553 37.0436 12.016C37.0436 14.9309 37.7351 17.2287 39.1181 18.9096C40.501 20.5904 42.4851 21.4309 45.0702 21.4309Z" fill="#641A89"/>
<path d="M0 23.6488V0.414795H3.23936L14.4415 16.7552L16.1649 19.468V0.414795H19.0691V23.6488H15.8138L4.89894 7.9148L2.85638 4.72331V23.6488H0Z" fill="#641A89"/>
<path d="M146.165 3.7692L144.479 0.47876L133.791 23.3487L146.165 3.7692Z" fill="url(#paint0_linear_2301_2)"/>
<path d="M147.796 6.89657L146.165 3.76929L133.791 23.3488L147.796 6.89657Z" fill="url(#paint1_linear_2301_2)"/>
<path d="M156.716 23.4575L147.766 6.92554L146.362 8.58511L156.716 23.4575Z" fill="url(#paint2_linear_2301_2)"/>
<path d="M146.362 8.58521L156.716 23.4575L144.83 10.3724L146.362 8.58521Z" fill="url(#paint3_linear_2301_2)"/>
<defs>
<linearGradient id="paint0_linear_2301_2" x1="140.617" y1="8.32982" x2="142.915" y2="9.60642" gradientUnits="userSpaceOnUse">
<stop stop-color="#641A89"/>
<stop offset="1" stop-color="#8F36BB"/>
</linearGradient>
<linearGradient id="paint1_linear_2301_2" x1="141.517" y1="10.4908" x2="143.728" y2="12.1147" gradientUnits="userSpaceOnUse">
<stop stop-color="#461C5B"/>
<stop offset="1" stop-color="#8F36BB"/>
</linearGradient>
<linearGradient id="paint2_linear_2301_2" x1="146.489" y1="16.3723" x2="152.724" y2="7.64018" gradientUnits="userSpaceOnUse">
<stop stop-color="#461C5B"/>
<stop offset="1" stop-color="#8F36BB"/>
</linearGradient>
<linearGradient id="paint3_linear_2301_2" x1="149.425" y1="15.9895" x2="150.579" y2="14.8494" gradientUnits="userSpaceOnUse">
<stop stop-color="#641A89"/>
<stop offset="1" stop-color="#8F36BB"/>
</linearGradient>
</defs>
</svg>
